<svg xmlns="http://www.w3.org/2000/svg" xmlns:xlink="http://www.w3.org/1999/xlink" xmlns:s="https://github.com/nturley/netlistsvg" width="1088" height="665.5">
  <style>svg {
    stroke:#000;
    fill:none;
  }
  text {
    fill:#000;
    stroke:none;
    font-size:10px;
    font-weight: bold;
    font-family: "Courier New", monospace;
  }
  .nodelabel {
    text-anchor: middle;
  }
  .inputPortLabel {
    text-anchor: end;
  }
  .splitjoinBody {
    fill:#000;
  }</style>
  <g s:type="not" transform="translate(545,566)" s:width="30" s:height="20" id="cell_$abc$110$auto$blifparse.cc:386:parse_blif$111">
    <s:alias val="$_NOT_"/>
    <s:alias val="$not"/>
    <s:alias val="$logic_not"/>
    <path d="M0,0 L0,20 L20,10 Z" class="cell_$abc$110$auto$blifparse.cc:386:parse_blif$111"/>
    <circle cx="23" cy="10" r="3" class="cell_$abc$110$auto$blifparse.cc:386:parse_blif$111"/>
    <g s:x="0" s:y="10" s:pid="A"/>
    <g s:x="25" s:y="10" s:pid="Y"/>
  </g>
  <g s:type="not" transform="translate(545,381.5)" s:width="30" s:height="20" id="cell_$abc$110$auto$blifparse.cc:386:parse_blif$112">
    <s:alias val="$_NOT_"/>
    <s:alias val="$not"/>
    <s:alias val="$logic_not"/>
    <path d="M0,0 L0,20 L20,10 Z" class="cell_$abc$110$auto$blifparse.cc:386:parse_blif$112"/>
    <circle cx="23" cy="10" r="3" class="cell_$abc$110$auto$blifparse.cc:386:parse_blif$112"/>
    <g s:x="0" s:y="10" s:pid="A"/>
    <g s:x="25" s:y="10" s:pid="Y"/>
  </g>
  <g s:type="not" transform="translate(687,623.5)" s:width="30" s:height="20" id="cell_$abc$110$auto$blifparse.cc:386:parse_blif$113">
    <s:alias val="$_NOT_"/>
    <s:alias val="$not"/>
    <s:alias val="$logic_not"/>
    <path d="M0,0 L0,20 L20,10 Z" class="cell_$abc$110$auto$blifparse.cc:386:parse_blif$113"/>
    <circle cx="23" cy="10" r="3" class="cell_$abc$110$auto$blifparse.cc:386:parse_blif$113"/>
    <g s:x="0" s:y="10" s:pid="A"/>
    <g s:x="25" s:y="10" s:pid="Y"/>
  </g>
  <g s:type="not" transform="translate(687,401.5)" s:width="30" s:height="20" id="cell_$abc$110$auto$blifparse.cc:386:parse_blif$114">
    <s:alias val="$_NOT_"/>
    <s:alias val="$not"/>
    <s:alias val="$logic_not"/>
    <path d="M0,0 L0,20 L20,10 Z" class="cell_$abc$110$auto$blifparse.cc:386:parse_blif$114"/>
    <circle cx="23" cy="10" r="3" class="cell_$abc$110$auto$blifparse.cc:386:parse_blif$114"/>
    <g s:x="0" s:y="10" s:pid="A"/>
    <g s:x="25" s:y="10" s:pid="Y"/>
  </g>
  <g s:type="not" transform="translate(83,66.5)" s:width="30" s:height="20" id="cell_$abc$110$auto$blifparse.cc:386:parse_blif$115">
    <s:alias val="$_NOT_"/>
    <s:alias val="$not"/>
    <s:alias val="$logic_not"/>
    <path d="M0,0 L0,20 L20,10 Z" class="cell_$abc$110$auto$blifparse.cc:386:parse_blif$115"/>
    <circle cx="23" cy="10" r="3" class="cell_$abc$110$auto$blifparse.cc:386:parse_blif$115"/>
    <g s:x="0" s:y="10" s:pid="A"/>
    <g s:x="25" s:y="10" s:pid="Y"/>
  </g>
  <g s:type="not" transform="translate(83,131.5)" s:width="30" s:height="20" id="cell_$abc$110$auto$blifparse.cc:386:parse_blif$116">
    <s:alias val="$_NOT_"/>
    <s:alias val="$not"/>
    <s:alias val="$logic_not"/>
    <path d="M0,0 L0,20 L20,10 Z" class="cell_$abc$110$auto$blifparse.cc:386:parse_blif$116"/>
    <circle cx="23" cy="10" r="3" class="cell_$abc$110$auto$blifparse.cc:386:parse_blif$116"/>
    <g s:x="0" s:y="10" s:pid="A"/>
    <g s:x="25" s:y="10" s:pid="Y"/>
  </g>
  <g s:type="not" transform="translate(254,158.5)" s:width="30" s:height="20" id="cell_$abc$110$auto$blifparse.cc:386:parse_blif$117">
    <s:alias val="$_NOT_"/>
    <s:alias val="$not"/>
    <s:alias val="$logic_not"/>
    <path d="M0,0 L0,20 L20,10 Z" class="cell_$abc$110$auto$blifparse.cc:386:parse_blif$117"/>
    <circle cx="23" cy="10" r="3" class="cell_$abc$110$auto$blifparse.cc:386:parse_blif$117"/>
    <g s:x="0" s:y="10" s:pid="A"/>
    <g s:x="25" s:y="10" s:pid="Y"/>
  </g>
  <g s:type="not" transform="translate(254,78)" s:width="30" s:height="20" id="cell_$abc$110$auto$blifparse.cc:386:parse_blif$118">
    <s:alias val="$_NOT_"/>
    <s:alias val="$not"/>
    <s:alias val="$logic_not"/>
    <path d="M0,0 L0,20 L20,10 Z" class="cell_$abc$110$auto$blifparse.cc:386:parse_blif$118"/>
    <circle cx="23" cy="10" r="3" class="cell_$abc$110$auto$blifparse.cc:386:parse_blif$118"/>
    <g s:x="0" s:y="10" s:pid="A"/>
    <g s:x="25" s:y="10" s:pid="Y"/>
  </g>
  <g s:type="not" transform="translate(398,216)" s:width="30" s:height="20" id="cell_$abc$110$auto$blifparse.cc:386:parse_blif$119">
    <s:alias val="$_NOT_"/>
    <s:alias val="$not"/>
    <s:alias val="$logic_not"/>
    <path d="M0,0 L0,20 L20,10 Z" class="cell_$abc$110$auto$blifparse.cc:386:parse_blif$119"/>
    <circle cx="23" cy="10" r="3" class="cell_$abc$110$auto$blifparse.cc:386:parse_blif$119"/>
    <g s:x="0" s:y="10" s:pid="A"/>
    <g s:x="25" s:y="10" s:pid="Y"/>
  </g>
  <g s:type="not" transform="translate(398,339)" s:width="30" s:height="20" id="cell_$abc$110$auto$blifparse.cc:386:parse_blif$120">
    <s:alias val="$_NOT_"/>
    <s:alias val="$not"/>
    <s:alias val="$logic_not"/>
    <path d="M0,0 L0,20 L20,10 Z" class="cell_$abc$110$auto$blifparse.cc:386:parse_blif$120"/>
    <circle cx="23" cy="10" r="3" class="cell_$abc$110$auto$blifparse.cc:386:parse_blif$120"/>
    <g s:x="0" s:y="10" s:pid="A"/>
    <g s:x="25" s:y="10" s:pid="Y"/>
  </g>
  <g s:type="nand" transform="translate(148,121.5)" s:width="30" s:height="25" id="cell_$abc$110$auto$blifparse.cc:386:parse_blif$121">
    <s:alias val="$nand"/>
    <s:alias val="$logic_nand"/>
    <s:alias val="$_NAND_"/>
    <s:alias val="$_ANDNOT_"/>
    <path d="M0,0 L0,25 L15,25 A15 12.5 0 0 0 15,0 Z" class="cell_$abc$110$auto$blifparse.cc:386:parse_blif$121"/>
    <circle cx="34" cy="12.5" r="3" class="cell_$abc$110$auto$blifparse.cc:386:parse_blif$121"/>
    <g s:x="0" s:y="5" s:pid="A"/>
    <g s:x="0" s:y="20" s:pid="B"/>
    <g s:x="36" s:y="12.5" s:pid="Y"/>
  </g>
  <g s:type="not" transform="translate(254,23)" s:width="30" s:height="20" id="cell_$abc$110$auto$blifparse.cc:386:parse_blif$122">
    <s:alias val="$_NOT_"/>
    <s:alias val="$not"/>
    <s:alias val="$logic_not"/>
    <path d="M0,0 L0,20 L20,10 Z" class="cell_$abc$110$auto$blifparse.cc:386:parse_blif$122"/>
    <circle cx="23" cy="10" r="3" class="cell_$abc$110$auto$blifparse.cc:386:parse_blif$122"/>
    <g s:x="0" s:y="10" s:pid="A"/>
    <g s:x="25" s:y="10" s:pid="Y"/>
  </g>
  <g s:type="nand" transform="translate(324,99)" s:width="30" s:height="25" id="cell_$abc$110$auto$blifparse.cc:386:parse_blif$123">
    <s:alias val="$nand"/>
    <s:alias val="$logic_nand"/>
    <s:alias val="$_NAND_"/>
    <s:alias val="$_ANDNOT_"/>
    <path d="M0,0 L0,25 L15,25 A15 12.5 0 0 0 15,0 Z" class="cell_$abc$110$auto$blifparse.cc:386:parse_blif$123"/>
    <circle cx="34" cy="12.5" r="3" class="cell_$abc$110$auto$blifparse.cc:386:parse_blif$123"/>
    <g s:x="0" s:y="5" s:pid="A"/>
    <g s:x="0" s:y="20" s:pid="B"/>
    <g s:x="36" s:y="12.5" s:pid="Y"/>
  </g>
  <g s:type="nand" transform="translate(324,163.5)" s:width="30" s:height="25" id="cell_$abc$110$auto$blifparse.cc:386:parse_blif$124">
    <s:alias val="$nand"/>
    <s:alias val="$logic_nand"/>
    <s:alias val="$_NAND_"/>
    <s:alias val="$_ANDNOT_"/>
    <path d="M0,0 L0,25 L15,25 A15 12.5 0 0 0 15,0 Z" class="cell_$abc$110$auto$blifparse.cc:386:parse_blif$124"/>
    <circle cx="34" cy="12.5" r="3" class="cell_$abc$110$auto$blifparse.cc:386:parse_blif$124"/>
    <g s:x="0" s:y="5" s:pid="A"/>
    <g s:x="0" s:y="20" s:pid="B"/>
    <g s:x="36" s:y="12.5" s:pid="Y"/>
  </g>
  <g s:type="nand" transform="translate(395,156)" s:width="30" s:height="25" id="cell_$abc$110$auto$blifparse.cc:386:parse_blif$125">
    <s:alias val="$nand"/>
    <s:alias val="$logic_nand"/>
    <s:alias val="$_NAND_"/>
    <s:alias val="$_ANDNOT_"/>
    <path d="M0,0 L0,25 L15,25 A15 12.5 0 0 0 15,0 Z" class="cell_$abc$110$auto$blifparse.cc:386:parse_blif$125"/>
    <circle cx="34" cy="12.5" r="3" class="cell_$abc$110$auto$blifparse.cc:386:parse_blif$125"/>
    <g s:x="0" s:y="5" s:pid="A"/>
    <g s:x="0" s:y="20" s:pid="B"/>
    <g s:x="36" s:y="12.5" s:pid="Y"/>
  </g>
  <g s:type="not" transform="translate(763,278)" s:width="30" s:height="20" id="cell_$abc$110$auto$blifparse.cc:386:parse_blif$126">
    <s:alias val="$_NOT_"/>
    <s:alias val="$not"/>
    <s:alias val="$logic_not"/>
    <path d="M0,0 L0,20 L20,10 Z" class="cell_$abc$110$auto$blifparse.cc:386:parse_blif$126"/>
    <circle cx="23" cy="10" r="3" class="cell_$abc$110$auto$blifparse.cc:386:parse_blif$126"/>
    <g s:x="0" s:y="10" s:pid="A"/>
    <g s:x="25" s:y="10" s:pid="Y"/>
  </g>
  <g s:type="nand" transform="translate(471,253)" s:width="30" s:height="25" id="cell_$abc$110$auto$blifparse.cc:386:parse_blif$127">
    <s:alias val="$nand"/>
    <s:alias val="$logic_nand"/>
    <s:alias val="$_NAND_"/>
    <s:alias val="$_ANDNOT_"/>
    <path d="M0,0 L0,25 L15,25 A15 12.5 0 0 0 15,0 Z" class="cell_$abc$110$auto$blifparse.cc:386:parse_blif$127"/>
    <circle cx="34" cy="12.5" r="3" class="cell_$abc$110$auto$blifparse.cc:386:parse_blif$127"/>
    <g s:x="0" s:y="5" s:pid="A"/>
    <g s:x="0" s:y="20" s:pid="B"/>
    <g s:x="36" s:y="12.5" s:pid="Y"/>
  </g>
  <g s:type="nand" transform="translate(471,329)" s:width="30" s:height="25" id="cell_$abc$110$auto$blifparse.cc:386:parse_blif$128">
    <s:alias val="$nand"/>
    <s:alias val="$logic_nand"/>
    <s:alias val="$_NAND_"/>
    <s:alias val="$_ANDNOT_"/>
    <path d="M0,0 L0,25 L15,25 A15 12.5 0 0 0 15,0 Z" class="cell_$abc$110$auto$blifparse.cc:386:parse_blif$128"/>
    <circle cx="34" cy="12.5" r="3" class="cell_$abc$110$auto$blifparse.cc:386:parse_blif$128"/>
    <g s:x="0" s:y="5" s:pid="A"/>
    <g s:x="0" s:y="20" s:pid="B"/>
    <g s:x="36" s:y="12.5" s:pid="Y"/>
  </g>
  <g s:type="nand" transform="translate(542,321.5)" s:width="30" s:height="25" id="cell_$abc$110$auto$blifparse.cc:386:parse_blif$129">
    <s:alias val="$nand"/>
    <s:alias val="$logic_nand"/>
    <s:alias val="$_NAND_"/>
    <s:alias val="$_ANDNOT_"/>
    <path d="M0,0 L0,25 L15,25 A15 12.5 0 0 0 15,0 Z" class="cell_$abc$110$auto$blifparse.cc:386:parse_blif$129"/>
    <circle cx="34" cy="12.5" r="3" class="cell_$abc$110$auto$blifparse.cc:386:parse_blif$129"/>
    <g s:x="0" s:y="5" s:pid="A"/>
    <g s:x="0" s:y="20" s:pid="B"/>
    <g s:x="36" s:y="12.5" s:pid="Y"/>
  </g>
  <g s:type="not" transform="translate(763,422.5)" s:width="30" s:height="20" id="cell_$abc$110$auto$blifparse.cc:386:parse_blif$130">
    <s:alias val="$_NOT_"/>
    <s:alias val="$not"/>
    <s:alias val="$logic_not"/>
    <path d="M0,0 L0,20 L20,10 Z" class="cell_$abc$110$auto$blifparse.cc:386:parse_blif$130"/>
    <circle cx="23" cy="10" r="3" class="cell_$abc$110$auto$blifparse.cc:386:parse_blif$130"/>
    <g s:x="0" s:y="10" s:pid="A"/>
    <g s:x="25" s:y="10" s:pid="Y"/>
  </g>
  <g s:type="nand" transform="translate(613,299)" s:width="30" s:height="25" id="cell_$abc$110$auto$blifparse.cc:386:parse_blif$131">
    <s:alias val="$nand"/>
    <s:alias val="$logic_nand"/>
    <s:alias val="$_NAND_"/>
    <s:alias val="$_ANDNOT_"/>
    <path d="M0,0 L0,25 L15,25 A15 12.5 0 0 0 15,0 Z" class="cell_$abc$110$auto$blifparse.cc:386:parse_blif$131"/>
    <circle cx="34" cy="12.5" r="3" class="cell_$abc$110$auto$blifparse.cc:386:parse_blif$131"/>
    <g s:x="0" s:y="5" s:pid="A"/>
    <g s:x="0" s:y="20" s:pid="B"/>
    <g s:x="36" s:y="12.5" s:pid="Y"/>
  </g>
  <g s:type="nand" transform="translate(613,571)" s:width="30" s:height="25" id="cell_$abc$110$auto$blifparse.cc:386:parse_blif$132">
    <s:alias val="$nand"/>
    <s:alias val="$logic_nand"/>
    <s:alias val="$_NAND_"/>
    <s:alias val="$_ANDNOT_"/>
    <path d="M0,0 L0,25 L15,25 A15 12.5 0 0 0 15,0 Z" class="cell_$abc$110$auto$blifparse.cc:386:parse_blif$132"/>
    <circle cx="34" cy="12.5" r="3" class="cell_$abc$110$auto$blifparse.cc:386:parse_blif$132"/>
    <g s:x="0" s:y="5" s:pid="A"/>
    <g s:x="0" s:y="20" s:pid="B"/>
    <g s:x="36" s:y="12.5" s:pid="Y"/>
  </g>
  <g s:type="nand" transform="translate(684,563.5)" s:width="30" s:height="25" id="cell_$abc$110$auto$blifparse.cc:386:parse_blif$133">
    <s:alias val="$nand"/>
    <s:alias val="$logic_nand"/>
    <s:alias val="$_NAND_"/>
    <s:alias val="$_ANDNOT_"/>
    <path d="M0,0 L0,25 L15,25 A15 12.5 0 0 0 15,0 Z" class="cell_$abc$110$auto$blifparse.cc:386:parse_blif$133"/>
    <circle cx="34" cy="12.5" r="3" class="cell_$abc$110$auto$blifparse.cc:386:parse_blif$133"/>
    <g s:x="0" s:y="5" s:pid="A"/>
    <g s:x="0" s:y="20" s:pid="B"/>
    <g s:x="36" s:y="12.5" s:pid="Y"/>
  </g>
  <g s:type="not" transform="translate(763,566)" s:width="30" s:height="20" id="cell_$abc$110$auto$blifparse.cc:386:parse_blif$134">
    <s:alias val="$_NOT_"/>
    <s:alias val="$not"/>
    <s:alias val="$logic_not"/>
    <path d="M0,0 L0,20 L20,10 Z" class="cell_$abc$110$auto$blifparse.cc:386:parse_blif$134"/>
    <circle cx="23" cy="10" r="3" class="cell_$abc$110$auto$blifparse.cc:386:parse_blif$134"/>
    <g s:x="0" s:y="10" s:pid="A"/>
    <g s:x="25" s:y="10" s:pid="Y"/>
  </g>
  <g s:type="nand" transform="translate(760,477.5)" s:width="30" s:height="25" id="cell_$abc$110$auto$blifparse.cc:386:parse_blif$135">
    <s:alias val="$nand"/>
    <s:alias val="$logic_nand"/>
    <s:alias val="$_NAND_"/>
    <s:alias val="$_ANDNOT_"/>
    <path d="M0,0 L0,25 L15,25 A15 12.5 0 0 0 15,0 Z" class="cell_$abc$110$auto$blifparse.cc:386:parse_blif$135"/>
    <circle cx="34" cy="12.5" r="3" class="cell_$abc$110$auto$blifparse.cc:386:parse_blif$135"/>
    <g s:x="0" s:y="5" s:pid="A"/>
    <g s:x="0" s:y="20" s:pid="B"/>
    <g s:x="36" s:y="12.5" s:pid="Y"/>
  </g>
  <g s:type="nand" transform="translate(760,628.5)" s:width="30" s:height="25" id="cell_$abc$110$auto$blifparse.cc:386:parse_blif$136">
    <s:alias val="$nand"/>
    <s:alias val="$logic_nand"/>
    <s:alias val="$_NAND_"/>
    <s:alias val="$_ANDNOT_"/>
    <path d="M0,0 L0,25 L15,25 A15 12.5 0 0 0 15,0 Z" class="cell_$abc$110$auto$blifparse.cc:386:parse_blif$136"/>
    <circle cx="34" cy="12.5" r="3" class="cell_$abc$110$auto$blifparse.cc:386:parse_blif$136"/>
    <g s:x="0" s:y="5" s:pid="A"/>
    <g s:x="0" s:y="20" s:pid="B"/>
    <g s:x="36" s:y="12.5" s:pid="Y"/>
  </g>
  <g s:type="nand" transform="translate(856,621)" s:width="30" s:height="25" id="cell_$abc$110$auto$blifparse.cc:386:parse_blif$137">
    <s:alias val="$nand"/>
    <s:alias val="$logic_nand"/>
    <s:alias val="$_NAND_"/>
    <s:alias val="$_ANDNOT_"/>
    <path d="M0,0 L0,25 L15,25 A15 12.5 0 0 0 15,0 Z" class="cell_$abc$110$auto$blifparse.cc:386:parse_blif$137"/>
    <circle cx="34" cy="12.5" r="3" class="cell_$abc$110$auto$blifparse.cc:386:parse_blif$137"/>
    <g s:x="0" s:y="5" s:pid="A"/>
    <g s:x="0" s:y="20" s:pid="B"/>
    <g s:x="36" s:y="12.5" s:pid="Y"/>
  </g>
  <g s:type="not" transform="translate(930,623.5)" s:width="30" s:height="20" id="cell_$abc$110$auto$blifparse.cc:386:parse_blif$138">
    <s:alias val="$_NOT_"/>
    <s:alias val="$not"/>
    <s:alias val="$logic_not"/>
    <path d="M0,0 L0,20 L20,10 Z" class="cell_$abc$110$auto$blifparse.cc:386:parse_blif$138"/>
    <circle cx="23" cy="10" r="3" class="cell_$abc$110$auto$blifparse.cc:386:parse_blif$138"/>
    <g s:x="0" s:y="10" s:pid="A"/>
    <g s:x="25" s:y="10" s:pid="Y"/>
  </g>
  <g s:type="nand" transform="translate(856,114)" s:width="30" s:height="25" id="cell_$abc$110$auto$blifparse.cc:386:parse_blif$139">
    <s:alias val="$nand"/>
    <s:alias val="$logic_nand"/>
    <s:alias val="$_NAND_"/>
    <s:alias val="$_ANDNOT_"/>
    <path d="M0,0 L0,25 L15,25 A15 12.5 0 0 0 15,0 Z" class="cell_$abc$110$auto$blifparse.cc:386:parse_blif$139"/>
    <circle cx="34" cy="12.5" r="3" class="cell_$abc$110$auto$blifparse.cc:386:parse_blif$139"/>
    <g s:x="0" s:y="5" s:pid="A"/>
    <g s:x="0" s:y="20" s:pid="B"/>
    <g s:x="36" s:y="12.5" s:pid="Y"/>
  </g>
  <g s:type="nand" transform="translate(927,106.5)" s:width="30" s:height="25" id="cell_$abc$110$auto$blifparse.cc:386:parse_blif$140">
    <s:alias val="$nand"/>
    <s:alias val="$logic_nand"/>
    <s:alias val="$_NAND_"/>
    <s:alias val="$_ANDNOT_"/>
    <path d="M0,0 L0,25 L15,25 A15 12.5 0 0 0 15,0 Z" class="cell_$abc$110$auto$blifparse.cc:386:parse_blif$140"/>
    <circle cx="34" cy="12.5" r="3" class="cell_$abc$110$auto$blifparse.cc:386:parse_blif$140"/>
    <g s:x="0" s:y="5" s:pid="A"/>
    <g s:x="0" s:y="20" s:pid="B"/>
    <g s:x="36" s:y="12.5" s:pid="Y"/>
  </g>
  <g s:type="nand" transform="translate(856,221)" s:width="30" s:height="25" id="cell_$abc$110$auto$blifparse.cc:386:parse_blif$141">
    <s:alias val="$nand"/>
    <s:alias val="$logic_nand"/>
    <s:alias val="$_NAND_"/>
    <s:alias val="$_ANDNOT_"/>
    <path d="M0,0 L0,25 L15,25 A15 12.5 0 0 0 15,0 Z" class="cell_$abc$110$auto$blifparse.cc:386:parse_blif$141"/>
    <circle cx="34" cy="12.5" r="3" class="cell_$abc$110$auto$blifparse.cc:386:parse_blif$141"/>
    <g s:x="0" s:y="5" s:pid="A"/>
    <g s:x="0" s:y="20" s:pid="B"/>
    <g s:x="36" s:y="12.5" s:pid="Y"/>
  </g>
  <g s:type="nand" transform="translate(927,213.5)" s:width="30" s:height="25" id="cell_$abc$110$auto$blifparse.cc:386:parse_blif$142">
    <s:alias val="$nand"/>
    <s:alias val="$logic_nand"/>
    <s:alias val="$_NAND_"/>
    <s:alias val="$_ANDNOT_"/>
    <path d="M0,0 L0,25 L15,25 A15 12.5 0 0 0 15,0 Z" class="cell_$abc$110$auto$blifparse.cc:386:parse_blif$142"/>
    <circle cx="34" cy="12.5" r="3" class="cell_$abc$110$auto$blifparse.cc:386:parse_blif$142"/>
    <g s:x="0" s:y="5" s:pid="A"/>
    <g s:x="0" s:y="20" s:pid="B"/>
    <g s:x="36" s:y="12.5" s:pid="Y"/>
  </g>
  <g s:type="nand" transform="translate(856,412.5)" s:width="30" s:height="25" id="cell_$abc$110$auto$blifparse.cc:386:parse_blif$143">
    <s:alias val="$nand"/>
    <s:alias val="$logic_nand"/>
    <s:alias val="$_NAND_"/>
    <s:alias val="$_ANDNOT_"/>
    <path d="M0,0 L0,25 L15,25 A15 12.5 0 0 0 15,0 Z" class="cell_$abc$110$auto$blifparse.cc:386:parse_blif$143"/>
    <circle cx="34" cy="12.5" r="3" class="cell_$abc$110$auto$blifparse.cc:386:parse_blif$143"/>
    <g s:x="0" s:y="5" s:pid="A"/>
    <g s:x="0" s:y="20" s:pid="B"/>
    <g s:x="36" s:y="12.5" s:pid="Y"/>
  </g>
  <g s:type="nand" transform="translate(927,405)" s:width="30" s:height="25" id="cell_$abc$110$auto$blifparse.cc:386:parse_blif$144">
    <s:alias val="$nand"/>
    <s:alias val="$logic_nand"/>
    <s:alias val="$_NAND_"/>
    <s:alias val="$_ANDNOT_"/>
    <path d="M0,0 L0,25 L15,25 A15 12.5 0 0 0 15,0 Z" class="cell_$abc$110$auto$blifparse.cc:386:parse_blif$144"/>
    <circle cx="34" cy="12.5" r="3" class="cell_$abc$110$auto$blifparse.cc:386:parse_blif$144"/>
    <g s:x="0" s:y="5" s:pid="A"/>
    <g s:x="0" s:y="20" s:pid="B"/>
    <g s:x="36" s:y="12.5" s:pid="Y"/>
  </g>
  <g s:type="nand" transform="translate(856,501)" s:width="30" s:height="25" id="cell_$abc$110$auto$blifparse.cc:386:parse_blif$145">
    <s:alias val="$nand"/>
    <s:alias val="$logic_nand"/>
    <s:alias val="$_NAND_"/>
    <s:alias val="$_ANDNOT_"/>
    <path d="M0,0 L0,25 L15,25 A15 12.5 0 0 0 15,0 Z" class="cell_$abc$110$auto$blifparse.cc:386:parse_blif$145"/>
    <circle cx="34" cy="12.5" r="3" class="cell_$abc$110$auto$blifparse.cc:386:parse_blif$145"/>
    <g s:x="0" s:y="5" s:pid="A"/>
    <g s:x="0" s:y="20" s:pid="B"/>
    <g s:x="36" s:y="12.5" s:pid="Y"/>
  </g>
  <g s:type="nand" transform="translate(927,493.5)" s:width="30" s:height="25" id="cell_$abc$110$auto$blifparse.cc:386:parse_blif$146">
    <s:alias val="$nand"/>
    <s:alias val="$logic_nand"/>
    <s:alias val="$_NAND_"/>
    <s:alias val="$_ANDNOT_"/>
    <path d="M0,0 L0,25 L15,25 A15 12.5 0 0 0 15,0 Z" class="cell_$abc$110$auto$blifparse.cc:386:parse_blif$146"/>
    <circle cx="34" cy="12.5" r="3" class="cell_$abc$110$auto$blifparse.cc:386:parse_blif$146"/>
    <g s:x="0" s:y="5" s:pid="A"/>
    <g s:x="0" s:y="20" s:pid="B"/>
    <g s:x="36" s:y="12.5" s:pid="Y"/>
  </g>
  <g s:type="outputExt" transform="translate(1046,536)" s:width="30" s:height="20" id="cell_CO">
    <text x="15" y="-4" class="nodelabel cell_CO" s:attribute="ref">CO</text>
    <s:alias val="$_outputExt_"/>
    <path d="M30,0 L30,20 L15,20 L0,10 L15,0 Z" class="cell_CO"/>
    <g s:x="0" s:y="10" s:pid="A"/>
  </g>
  <g s:type="outputExt" transform="translate(1046,377.5)" s:width="30" s:height="20" id="cell_O">
    <text x="15" y="-4" class="nodelabel cell_O" s:attribute="ref">O</text>
    <s:alias val="$_outputExt_"/>
    <path d="M30,0 L30,20 L15,20 L0,10 L15,0 Z" class="cell_O"/>
    <g s:x="0" s:y="10" s:pid="A"/>
  </g>
  <g s:type="inputExt" transform="translate(12,131.5)" s:width="30" s:height="20" id="cell_CI">
    <text x="15" y="-4" class="nodelabel cell_CI" s:attribute="ref">CI</text>
    <s:alias val="$_inputExt_"/>
    <path d="M0,0 L0,20 L15,20 L30,10 L15,0 Z" class="cell_CI"/>
    <g s:x="28" s:y="10" s:pid="Y"/>
  </g>
  <g s:type="inputExt" transform="translate(12,66.5)" s:width="30" s:height="20" id="cell_CYINIT">
    <text x="15" y="-4" class="nodelabel cell_CYINIT" s:attribute="ref">CYINIT</text>
    <s:alias val="$_inputExt_"/>
    <path d="M0,0 L0,20 L15,20 L30,10 L15,0 Z" class="cell_CYINIT"/>
    <g s:x="28" s:y="10" s:pid="Y"/>
  </g>
  <g s:type="inputExt" transform="translate(83,576)" s:width="30" s:height="20" id="cell_DI">
    <text x="15" y="-4" class="nodelabel cell_DI" s:attribute="ref">DI</text>
    <s:alias val="$_inputExt_"/>
    <path d="M0,0 L0,20 L15,20 L30,10 L15,0 Z" class="cell_DI"/>
    <g s:x="28" s:y="10" s:pid="Y"/>
  </g>
  <g s:type="inputExt" transform="translate(83,304)" s:width="30" s:height="20" id="cell_S">
    <text x="15" y="-4" class="nodelabel cell_S" s:attribute="ref">S</text>
    <s:alias val="$_inputExt_"/>
    <path d="M0,0 L0,20 L15,20 L30,10 L15,0 Z" class="cell_S"/>
    <g s:x="28" s:y="10" s:pid="Y"/>
  </g>
  <g s:type="join" transform="translate(1005,525.5)" s:width="4" s:height="40" id="cell_$join$,2,3,4,5,">
    <rect width="5" height="80" class="splitjoinBody" s:generic="body"/>
    <s:alias val="$_join_"/>
    <g s:x="5" s:y="20" s:pid="out"/>
    <g transform="translate(0,10)" s:x="0" s:y="10" s:pid="in0">
      <text x="-3" y="-4" class="inputPortLabel">0</text>
    </g>
    <g transform="translate(0,30)" s:x="0" s:y="10" s:pid="in0">
      <text x="-3" y="-4" class="inputPortLabel">1</text>
    </g>
    <g transform="translate(0,50)" s:x="0" s:y="10" s:pid="in0">
      <text x="-3" y="-4" class="inputPortLabel">2</text>
    </g>
    <g transform="translate(0,70)" s:x="0" s:y="10" s:pid="in0">
      <text x="-3" y="-4" class="inputPortLabel">3</text>
    </g>
  </g>
  <g s:type="join" transform="translate(1005,367)" s:width="4" s:height="40" id="cell_$join$,6,7,8,9,">
    <rect width="5" height="80" class="splitjoinBody" s:generic="body"/>
    <s:alias val="$_join_"/>
    <g s:x="5" s:y="20" s:pid="out"/>
    <g transform="translate(0,10)" s:x="0" s:y="10" s:pid="in0">
      <text x="-3" y="-4" class="inputPortLabel">0</text>
    </g>
    <g transform="translate(0,30)" s:x="0" s:y="10" s:pid="in0">
      <text x="-3" y="-4" class="inputPortLabel">1</text>
    </g>
    <g transform="translate(0,50)" s:x="0" s:y="10" s:pid="in0">
      <text x="-3" y="-4" class="inputPortLabel">2</text>
    </g>
    <g transform="translate(0,70)" s:x="0" s:y="10" s:pid="in0">
      <text x="-3" y="-4" class="inputPortLabel">3</text>
    </g>
  </g>
  <g s:type="split" transform="translate(168.6,565.5)" s:width="5" s:height="40" id="cell_$split$,12,13,14,15,">
    <rect width="5" height="80" class="splitjoinBody" s:generic="body"/>
    <s:alias val="$_split_"/>
    <g s:x="0" s:y="20" s:pid="in"/>
    <g transform="translate(4,10)" s:x="4" s:y="10" s:pid="out0">
      <text x="5" y="-4">2</text>
    </g>
    <g transform="translate(4,30)" s:x="4" s:y="10" s:pid="out0">
      <text x="5" y="-4">3</text>
    </g>
    <g transform="translate(4,50)" s:x="4" s:y="10" s:pid="out0">
      <text x="5" y="-4">0</text>
    </g>
    <g transform="translate(4,70)" s:x="4" s:y="10" s:pid="out0">
      <text x="5" y="-4">1</text>
    </g>
  </g>
  <g s:type="split" transform="translate(168.6,293.5)" s:width="5" s:height="40" id="cell_$split$,16,17,18,19,">
    <rect width="5" height="80" class="splitjoinBody" s:generic="body"/>
    <s:alias val="$_split_"/>
    <g s:x="0" s:y="20" s:pid="in"/>
    <g transform="translate(4,10)" s:x="4" s:y="10" s:pid="out0">
      <text x="5" y="-4">2</text>
    </g>
    <g transform="translate(4,30)" s:x="4" s:y="10" s:pid="out0">
      <text x="5" y="-4">3</text>
    </g>
    <g transform="translate(4,50)" s:x="4" s:y="10" s:pid="out0">
      <text x="5" y="-4">0</text>
    </g>
    <g transform="translate(4,70)" s:x="4" s:y="10" s:pid="out0">
      <text x="5" y="-4">1</text>
    </g>
  </g>
  <line x1="173.6" x2="545" y1="576" y2="576" class="net_14"/>
  <line x1="173.6" x2="244" y1="304" y2="304" class="net_18"/>
  <line x1="244" x2="244" y1="304" y2="391.5" class="net_18"/>
  <circle cx="244" cy="304" r="2" style="fill:#000" class="net_18"/>
  <line x1="244" x2="545" y1="391.5" y2="391.5" class="net_18"/>
  <line x1="173.6" x2="613" y1="304" y2="304" class="net_18"/>
  <line x1="173.6" x2="244" y1="596" y2="596" class="net_15"/>
  <line x1="244" x2="244" y1="596" y2="633.5" class="net_15"/>
  <line x1="244" x2="687" y1="633.5" y2="633.5" class="net_15"/>
  <line x1="173.6" x2="194" y1="324" y2="324" class="net_19"/>
  <line x1="194" x2="194" y1="324" y2="411.5" class="net_19"/>
  <line x1="194" x2="687" y1="411.5" y2="411.5" class="net_19"/>
  <line x1="173.6" x2="194" y1="324" y2="324" class="net_19"/>
  <line x1="194" x2="194" y1="324" y2="411.5" class="net_19"/>
  <line x1="194" x2="669" y1="411.5" y2="411.5" class="net_19"/>
  <line x1="669" x2="669" y1="411.5" y2="390.5" class="net_19"/>
  <line x1="669" x2="740" y1="390.5" y2="390.5" class="net_19"/>
  <line x1="740" x2="740" y1="390.5" y2="482.5" class="net_19"/>
  <circle cx="669" cy="411.5" r="2" style="fill:#000" class="net_19"/>
  <line x1="740" x2="760" y1="482.5" y2="482.5" class="net_19"/>
  <line x1="40" x2="83" y1="76.5" y2="76.5" class="net_11"/>
  <line x1="40" x2="83" y1="141.5" y2="141.5" class="net_10"/>
  <line x1="173.6" x2="224" y1="616" y2="616" class="net_12"/>
  <line x1="224" x2="224" y1="616" y2="168.5" class="net_12"/>
  <line x1="224" x2="254" y1="168.5" y2="168.5" class="net_12"/>
  <line x1="173.6" x2="204" y1="344" y2="344" class="net_16"/>
  <line x1="204" x2="204" y1="344" y2="88" class="net_16"/>
  <circle cx="204" cy="88" r="2" style="fill:#000" class="net_16"/>
  <line x1="204" x2="254" y1="88" y2="88" class="net_16"/>
  <line x1="173.6" x2="204" y1="344" y2="344" class="net_16"/>
  <line x1="204" x2="204" y1="344" y2="12" class="net_16"/>
  <line x1="204" x2="314" y1="12" y2="12" class="net_16"/>
  <line x1="314" x2="314" y1="12" y2="104" class="net_16"/>
  <line x1="314" x2="324" y1="104" y2="104" class="net_16"/>
  <line x1="173.6" x2="214" y1="364" y2="364" class="net_17"/>
  <line x1="214" x2="214" y1="364" y2="226" class="net_17"/>
  <circle cx="214" cy="226" r="2" style="fill:#000" class="net_17"/>
  <line x1="214" x2="398" y1="226" y2="226" class="net_17"/>
  <line x1="173.6" x2="214" y1="364" y2="364" class="net_17"/>
  <line x1="214" x2="214" y1="364" y2="145" class="net_17"/>
  <line x1="214" x2="461" y1="145" y2="145" class="net_17"/>
  <line x1="461" x2="461" y1="145" y2="258" class="net_17"/>
  <line x1="461" x2="471" y1="258" y2="258" class="net_17"/>
  <line x1="173.6" x2="234" y1="636" y2="636" class="net_13"/>
  <line x1="234" x2="234" y1="636" y2="349" class="net_13"/>
  <line x1="234" x2="398" y1="349" y2="349" class="net_13"/>
  <line x1="108" x2="123" y1="76.5" y2="76.5" class="net_24"/>
  <line x1="123" x2="123" y1="76.5" y2="126.5" class="net_24"/>
  <line x1="123" x2="148" y1="126.5" y2="126.5" class="net_24"/>
  <line x1="108" x2="148" y1="141.5" y2="141.5" class="net_25"/>
  <line x1="184" x2="214" y1="134" y2="134" class="net_30"/>
  <line x1="214" x2="214" y1="134" y2="33" class="net_30"/>
  <circle cx="214" cy="134" r="2" style="fill:#000" class="net_30"/>
  <line x1="214" x2="254" y1="33" y2="33" class="net_30"/>
  <line x1="184" x2="856" y1="134" y2="134" class="net_30"/>
  <line x1="279" x2="304" y1="33" y2="33" class="net_31"/>
  <line x1="304" x2="304" y1="33" y2="119" class="net_31"/>
  <line x1="304" x2="324" y1="119" y2="119" class="net_31"/>
  <line x1="279" x2="324" y1="168.5" y2="168.5" class="net_26"/>
  <line x1="279" x2="294" y1="88" y2="88" class="net_27"/>
  <line x1="294" x2="294" y1="88" y2="183.5" class="net_27"/>
  <circle cx="294" cy="88" r="2" style="fill:#000" class="net_27"/>
  <line x1="294" x2="324" y1="183.5" y2="183.5" class="net_27"/>
  <line x1="279" x2="806" y1="88" y2="88" class="net_27"/>
  <line x1="806" x2="806" y1="88" y2="119" class="net_27"/>
  <line x1="806" x2="856" y1="119" y2="119" class="net_27"/>
  <line x1="360" x2="370" y1="111.5" y2="111.5" class="net_32"/>
  <line x1="370" x2="370" y1="111.5" y2="161" class="net_32"/>
  <circle cx="370" cy="111.5" r="2" style="fill:#000" class="net_32"/>
  <line x1="370" x2="395" y1="161" y2="161" class="net_32"/>
  <line x1="360" x2="370" y1="111.5" y2="111.5" class="net_32"/>
  <line x1="370" x2="370" y1="111.5" y2="77" class="net_32"/>
  <line x1="370" x2="902" y1="77" y2="77" class="net_32"/>
  <line x1="902" x2="902" y1="77" y2="111.5" class="net_32"/>
  <line x1="902" x2="927" y1="111.5" y2="111.5" class="net_32"/>
  <line x1="360" x2="395" y1="176" y2="176" class="net_33"/>
  <line x1="431" x2="451" y1="168.5" y2="168.5" class="net_34"/>
  <line x1="451" x2="451" y1="168.5" y2="288" class="net_34"/>
  <line x1="451" x2="763" y1="288" y2="288" class="net_34"/>
  <line x1="431" x2="451" y1="168.5" y2="168.5" class="net_34"/>
  <line x1="451" x2="451" y1="168.5" y2="273" class="net_34"/>
  <circle cx="451" cy="273" r="2" style="fill:#000" class="net_34"/>
  <line x1="451" x2="471" y1="273" y2="273" class="net_34"/>
  <line x1="423" x2="441" y1="226" y2="226" class="net_28"/>
  <line x1="441" x2="441" y1="226" y2="334" class="net_28"/>
  <circle cx="441" cy="226" r="2" style="fill:#000" class="net_28"/>
  <line x1="441" x2="471" y1="334" y2="334" class="net_28"/>
  <line x1="423" x2="856" y1="226" y2="226" class="net_28"/>
  <line x1="423" x2="471" y1="349" y2="349" class="net_29"/>
  <line x1="507" x2="517" y1="265.5" y2="265.5" class="net_35"/>
  <line x1="517" x2="517" y1="265.5" y2="326.5" class="net_35"/>
  <circle cx="517" cy="265.5" r="2" style="fill:#000" class="net_35"/>
  <line x1="517" x2="542" y1="326.5" y2="326.5" class="net_35"/>
  <line x1="507" x2="517" y1="265.5" y2="265.5" class="net_35"/>
  <line x1="517" x2="517" y1="265.5" y2="210" class="net_35"/>
  <line x1="517" x2="902" y1="210" y2="210" class="net_35"/>
  <line x1="902" x2="902" y1="210" y2="218.5" class="net_35"/>
  <line x1="902" x2="927" y1="218.5" y2="218.5" class="net_35"/>
  <line x1="507" x2="542" y1="341.5" y2="341.5" class="net_36"/>
  <line x1="578" x2="750" y1="334" y2="334" class="net_37"/>
  <line x1="750" x2="750" y1="334" y2="432.5" class="net_37"/>
  <line x1="750" x2="763" y1="432.5" y2="432.5" class="net_37"/>
  <line x1="578" x2="598" y1="334" y2="334" class="net_37"/>
  <line x1="598" x2="598" y1="334" y2="319" class="net_37"/>
  <circle cx="598" cy="334" r="2" style="fill:#000" class="net_37"/>
  <line x1="598" x2="613" y1="319" y2="319" class="net_37"/>
  <line x1="570" x2="613" y1="576" y2="576" class="net_20"/>
  <line x1="570" x2="588" y1="391.5" y2="391.5" class="net_21"/>
  <line x1="588" x2="588" y1="391.5" y2="591" class="net_21"/>
  <circle cx="588" cy="391.5" r="2" style="fill:#000" class="net_21"/>
  <line x1="588" x2="613" y1="591" y2="591" class="net_21"/>
  <line x1="570" x2="588" y1="391.5" y2="391.5" class="net_21"/>
  <line x1="588" x2="588" y1="391.5" y2="267" class="net_21"/>
  <line x1="588" x2="846" y1="267" y2="267" class="net_21"/>
  <line x1="846" x2="846" y1="267" y2="417.5" class="net_21"/>
  <line x1="846" x2="856" y1="417.5" y2="417.5" class="net_21"/>
  <line x1="649" x2="659" y1="311.5" y2="311.5" class="net_38"/>
  <line x1="659" x2="659" y1="311.5" y2="568.5" class="net_38"/>
  <circle cx="659" cy="311.5" r="2" style="fill:#000" class="net_38"/>
  <line x1="659" x2="684" y1="568.5" y2="568.5" class="net_38"/>
  <line x1="649" x2="659" y1="311.5" y2="311.5" class="net_38"/>
  <line x1="659" x2="659" y1="311.5" y2="256" class="net_38"/>
  <line x1="659" x2="902" y1="256" y2="256" class="net_38"/>
  <line x1="902" x2="902" y1="256" y2="410" class="net_38"/>
  <line x1="902" x2="927" y1="410" y2="410" class="net_38"/>
  <line x1="649" x2="684" y1="583.5" y2="583.5" class="net_39"/>
  <line x1="720" x2="763" y1="576" y2="576" class="net_40"/>
  <line x1="720" x2="740" y1="576" y2="576" class="net_40"/>
  <line x1="740" x2="740" y1="576" y2="497.5" class="net_40"/>
  <circle cx="740" cy="576" r="2" style="fill:#000" class="net_40"/>
  <line x1="740" x2="760" y1="497.5" y2="497.5" class="net_40"/>
  <line x1="712" x2="760" y1="633.5" y2="633.5" class="net_22"/>
  <line x1="712" x2="730" y1="411.5" y2="411.5" class="net_23"/>
  <line x1="730" x2="730" y1="411.5" y2="648.5" class="net_23"/>
  <circle cx="730" cy="411.5" r="2" style="fill:#000" class="net_23"/>
  <line x1="730" x2="760" y1="648.5" y2="648.5" class="net_23"/>
  <line x1="712" x2="826" y1="411.5" y2="411.5" class="net_23"/>
  <line x1="826" x2="826" y1="411.5" y2="506" class="net_23"/>
  <line x1="826" x2="856" y1="506" y2="506" class="net_23"/>
  <line x1="796" x2="806" y1="490" y2="490" class="net_41"/>
  <line x1="806" x2="806" y1="490" y2="626" class="net_41"/>
  <circle cx="806" cy="490" r="2" style="fill:#000" class="net_41"/>
  <line x1="806" x2="856" y1="626" y2="626" class="net_41"/>
  <line x1="796" x2="902" y1="490" y2="490" class="net_41"/>
  <line x1="902" x2="902" y1="490" y2="498.5" class="net_41"/>
  <line x1="902" x2="927" y1="498.5" y2="498.5" class="net_41"/>
  <line x1="796" x2="856" y1="641" y2="641" class="net_42"/>
  <line x1="892" x2="930" y1="633.5" y2="633.5" class="net_43"/>
  <line x1="892" x2="927" y1="126.5" y2="126.5" class="net_44"/>
  <line x1="788" x2="836" y1="288" y2="288" class="net_2"/>
  <line x1="836" x2="836" y1="288" y2="241" class="net_2"/>
  <circle cx="836" cy="288" r="2" style="fill:#000" class="net_2"/>
  <line x1="836" x2="856" y1="241" y2="241" class="net_2"/>
  <line x1="788" x2="836" y1="288" y2="288" class="net_2"/>
  <line x1="836" x2="836" y1="288" y2="536" class="net_2"/>
  <line x1="836" x2="1005" y1="536" y2="536" class="net_2"/>
  <line x1="892" x2="927" y1="233.5" y2="233.5" class="net_45"/>
  <line x1="788" x2="856" y1="432.5" y2="432.5" class="net_3"/>
  <line x1="788" x2="816" y1="432.5" y2="432.5" class="net_3"/>
  <line x1="816" x2="816" y1="432.5" y2="556" class="net_3"/>
  <circle cx="816" cy="432.5" r="2" style="fill:#000" class="net_3"/>
  <line x1="816" x2="1005" y1="556" y2="556" class="net_3"/>
  <line x1="892" x2="927" y1="425" y2="425" class="net_46"/>
  <line x1="788" x2="846" y1="576" y2="576" class="net_4"/>
  <line x1="846" x2="846" y1="576" y2="521" class="net_4"/>
  <circle cx="846" cy="576" r="2" style="fill:#000" class="net_4"/>
  <line x1="846" x2="856" y1="521" y2="521" class="net_4"/>
  <line x1="788" x2="1005" y1="576" y2="576" class="net_4"/>
  <line x1="892" x2="927" y1="513.5" y2="513.5" class="net_47"/>
  <line x1="1011" x2="1046" y1="546" y2="546" class="net_2,3,4,5"/>
  <line x1="1011" x2="1046" y1="387.5" y2="387.5" class="net_6,7,8,9"/>
  <line x1="955" x2="1005.5" y1="633.5" y2="633.5" class="net_5"/>
  <line x1="1005.5" x2="1005.5" y1="633.5" y2="596.5" class="net_5"/>
  <line x1="963" x2="983" y1="119" y2="119" class="net_6"/>
  <line x1="983" x2="983" y1="119" y2="377.5" class="net_6"/>
  <line x1="983" x2="1005" y1="377.5" y2="377.5" class="net_6"/>
  <line x1="963" x2="973" y1="226" y2="226" class="net_7"/>
  <line x1="973" x2="973" y1="226" y2="397.5" class="net_7"/>
  <line x1="973" x2="1005" y1="397.5" y2="397.5" class="net_7"/>
  <line x1="963" x2="1005" y1="417.5" y2="417.5" class="net_8"/>
  <line x1="963" x2="1005.5" y1="506" y2="506" class="net_9"/>
  <line x1="1005.5" x2="1005.5" y1="506" y2="438" class="net_9"/>
  <line x1="111" x2="168.6" y1="586" y2="586" class="net_12,13,14,15"/>
  <line x1="111" x2="168.6" y1="314" y2="314" class="net_16,17,18,19"/>
</svg>
