<svg xmlns="http://www.w3.org/2000/svg" xmlns:xlink="http://www.w3.org/1999/xlink" xmlns:s="https://github.com/nturley/netlistsvg" width="1129" height="665.5"><style>svg {
  stroke:#000;
  fill:none;
}
text {
  fill:#000;
  stroke:none;
  font-size:10px;
  font-weight: bold;
  font-family: "Courier New", monospace;
}
line {
    stroke-linecap: round;
}
.nodelabel {
  text-anchor: middle;
}
.inputPortLabel {
  text-anchor: end;
}
.splitjoinBody {
  fill:#000;
}</style><g s:type="not" transform="translate(547,566)" s:width="30" s:height="20" id="cell_$abc$110$auto$blifparse.cc:386:parse_blif$111"><s:alias val="$_NOT_"/><s:alias val="$not"/><s:alias val="$logic_not"/><path d="M0,0 L0,20 L20,10 Z" class="cell_$abc$110$auto$blifparse.cc:386:parse_blif$111"/><circle cx="24" cy="10" r="3" class="cell_$abc$110$auto$blifparse.cc:386:parse_blif$111"/><g s:x="-1" s:y="10" s:pid="A"/><g s:x="27" s:y="10" s:pid="Y"/></g><g s:type="not" transform="translate(547,381.5)" s:width="30" s:height="20" id="cell_$abc$110$auto$blifparse.cc:386:parse_blif$112"><s:alias val="$_NOT_"/><s:alias val="$not"/><s:alias val="$logic_not"/><path d="M0,0 L0,20 L20,10 Z" class="cell_$abc$110$auto$blifparse.cc:386:parse_blif$112"/><circle cx="24" cy="10" r="3" class="cell_$abc$110$auto$blifparse.cc:386:parse_blif$112"/><g s:x="-1" s:y="10" s:pid="A"/><g s:x="27" s:y="10" s:pid="Y"/></g><g s:type="not" transform="translate(689,623.5)" s:width="30" s:height="20" id="cell_$abc$110$auto$blifparse.cc:386:parse_blif$113"><s:alias val="$_NOT_"/><s:alias val="$not"/><s:alias val="$logic_not"/><path d="M0,0 L0,20 L20,10 Z" class="cell_$abc$110$auto$blifparse.cc:386:parse_blif$113"/><circle cx="24" cy="10" r="3" class="cell_$abc$110$auto$blifparse.cc:386:parse_blif$113"/><g s:x="-1" s:y="10" s:pid="A"/><g s:x="27" s:y="10" s:pid="Y"/></g><g s:type="not" transform="translate(689,401.5)" s:width="30" s:height="20" id="cell_$abc$110$auto$blifparse.cc:386:parse_blif$114"><s:alias val="$_NOT_"/><s:alias val="$not"/><s:alias val="$logic_not"/><path d="M0,0 L0,20 L20,10 Z" class="cell_$abc$110$auto$blifparse.cc:386:parse_blif$114"/><circle cx="24" cy="10" r="3" class="cell_$abc$110$auto$blifparse.cc:386:parse_blif$114"/><g s:x="-1" s:y="10" s:pid="A"/><g s:x="27" s:y="10" s:pid="Y"/></g><g s:type="not" transform="translate(84,66.5)" s:width="30" s:height="20" id="cell_$abc$110$auto$blifparse.cc:386:parse_blif$115"><s:alias val="$_NOT_"/><s:alias val="$not"/><s:alias val="$logic_not"/><path d="M0,0 L0,20 L20,10 Z" class="cell_$abc$110$auto$blifparse.cc:386:parse_blif$115"/><circle cx="24" cy="10" r="3" class="cell_$abc$110$auto$blifparse.cc:386:parse_blif$115"/><g s:x="-1" s:y="10" s:pid="A"/><g s:x="27" s:y="10" s:pid="Y"/></g><g s:type="not" transform="translate(84,131.5)" s:width="30" s:height="20" id="cell_$abc$110$auto$blifparse.cc:386:parse_blif$116"><s:alias val="$_NOT_"/><s:alias val="$not"/><s:alias val="$logic_not"/><path d="M0,0 L0,20 L20,10 Z" class="cell_$abc$110$auto$blifparse.cc:386:parse_blif$116"/><circle cx="24" cy="10" r="3" class="cell_$abc$110$auto$blifparse.cc:386:parse_blif$116"/><g s:x="-1" s:y="10" s:pid="A"/><g s:x="27" s:y="10" s:pid="Y"/></g><g s:type="not" transform="translate(256,158.5)" s:width="30" s:height="20" id="cell_$abc$110$auto$blifparse.cc:386:parse_blif$117"><s:alias val="$_NOT_"/><s:alias val="$not"/><s:alias val="$logic_not"/><path d="M0,0 L0,20 L20,10 Z" class="cell_$abc$110$auto$blifparse.cc:386:parse_blif$117"/><circle cx="24" cy="10" r="3" class="cell_$abc$110$auto$blifparse.cc:386:parse_blif$117"/><g s:x="-1" s:y="10" s:pid="A"/><g s:x="27" s:y="10" s:pid="Y"/></g><g s:type="not" transform="translate(256,78)" s:width="30" s:height="20" id="cell_$abc$110$auto$blifparse.cc:386:parse_blif$118"><s:alias val="$_NOT_"/><s:alias val="$not"/><s:alias val="$logic_not"/><path d="M0,0 L0,20 L20,10 Z" class="cell_$abc$110$auto$blifparse.cc:386:parse_blif$118"/><circle cx="24" cy="10" r="3" class="cell_$abc$110$auto$blifparse.cc:386:parse_blif$118"/><g s:x="-1" s:y="10" s:pid="A"/><g s:x="27" s:y="10" s:pid="Y"/></g><g s:type="not" transform="translate(400,216)" s:width="30" s:height="20" id="cell_$abc$110$auto$blifparse.cc:386:parse_blif$119"><s:alias val="$_NOT_"/><s:alias val="$not"/><s:alias val="$logic_not"/><path d="M0,0 L0,20 L20,10 Z" class="cell_$abc$110$auto$blifparse.cc:386:parse_blif$119"/><circle cx="24" cy="10" r="3" class="cell_$abc$110$auto$blifparse.cc:386:parse_blif$119"/><g s:x="-1" s:y="10" s:pid="A"/><g s:x="27" s:y="10" s:pid="Y"/></g><g s:type="not" transform="translate(400,339)" s:width="30" s:height="20" id="cell_$abc$110$auto$blifparse.cc:386:parse_blif$120"><s:alias val="$_NOT_"/><s:alias val="$not"/><s:alias val="$logic_not"/><path d="M0,0 L0,20 L20,10 Z" class="cell_$abc$110$auto$blifparse.cc:386:parse_blif$120"/><circle cx="24" cy="10" r="3" class="cell_$abc$110$auto$blifparse.cc:386:parse_blif$120"/><g s:x="-1" s:y="10" s:pid="A"/><g s:x="27" s:y="10" s:pid="Y"/></g><g s:type="nand" transform="translate(149,121.5)" s:width="30" s:height="25" id="cell_$abc$110$auto$blifparse.cc:386:parse_blif$121"><s:alias val="$nand"/><s:alias val="$logic_nand"/><s:alias val="$_NAND_"/><s:alias val="$_ANDNOT_"/><path d="M0,0 L0,25 L15,25 A15 12.5 0 0 0 15,0 Z" class="cell_$abc$110$auto$blifparse.cc:386:parse_blif$121"/><circle cx="34" cy="12.5" r="3" class="cell_$abc$110$auto$blifparse.cc:386:parse_blif$121"/><g s:x="0" s:y="5" s:pid="A"/><g s:x="0" s:y="20" s:pid="B"/><g s:x="36" s:y="12.5" s:pid="Y"/></g><g s:type="not" transform="translate(256,23)" s:width="30" s:height="20" id="cell_$abc$110$auto$blifparse.cc:386:parse_blif$122"><s:alias val="$_NOT_"/><s:alias val="$not"/><s:alias val="$logic_not"/><path d="M0,0 L0,20 L20,10 Z" class="cell_$abc$110$auto$blifparse.cc:386:parse_blif$122"/><circle cx="24" cy="10" r="3" class="cell_$abc$110$auto$blifparse.cc:386:parse_blif$122"/><g s:x="-1" s:y="10" s:pid="A"/><g s:x="27" s:y="10" s:pid="Y"/></g><g s:type="nand" transform="translate(326,99)" s:width="30" s:height="25" id="cell_$abc$110$auto$blifparse.cc:386:parse_blif$123"><s:alias val="$nand"/><s:alias val="$logic_nand"/><s:alias val="$_NAND_"/><s:alias val="$_ANDNOT_"/><path d="M0,0 L0,25 L15,25 A15 12.5 0 0 0 15,0 Z" class="cell_$abc$110$auto$blifparse.cc:386:parse_blif$123"/><circle cx="34" cy="12.5" r="3" class="cell_$abc$110$auto$blifparse.cc:386:parse_blif$123"/><g s:x="0" s:y="5" s:pid="A"/><g s:x="0" s:y="20" s:pid="B"/><g s:x="36" s:y="12.5" s:pid="Y"/></g><g s:type="nand" transform="translate(326,163.5)" s:width="30" s:height="25" id="cell_$abc$110$auto$blifparse.cc:386:parse_blif$124"><s:alias val="$nand"/><s:alias val="$logic_nand"/><s:alias val="$_NAND_"/><s:alias val="$_ANDNOT_"/><path d="M0,0 L0,25 L15,25 A15 12.5 0 0 0 15,0 Z" class="cell_$abc$110$auto$blifparse.cc:386:parse_blif$124"/><circle cx="34" cy="12.5" r="3" class="cell_$abc$110$auto$blifparse.cc:386:parse_blif$124"/><g s:x="0" s:y="5" s:pid="A"/><g s:x="0" s:y="20" s:pid="B"/><g s:x="36" s:y="12.5" s:pid="Y"/></g><g s:type="nand" transform="translate(397,156)" s:width="30" s:height="25" id="cell_$abc$110$auto$blifparse.cc:386:parse_blif$125"><s:alias val="$nand"/><s:alias val="$logic_nand"/><s:alias val="$_NAND_"/><s:alias val="$_ANDNOT_"/><path d="M0,0 L0,25 L15,25 A15 12.5 0 0 0 15,0 Z" class="cell_$abc$110$auto$blifparse.cc:386:parse_blif$125"/><circle cx="34" cy="12.5" r="3" class="cell_$abc$110$auto$blifparse.cc:386:parse_blif$125"/><g s:x="0" s:y="5" s:pid="A"/><g s:x="0" s:y="20" s:pid="B"/><g s:x="36" s:y="12.5" s:pid="Y"/></g><g s:type="not" transform="translate(765,278)" s:width="30" s:height="20" id="cell_$abc$110$auto$blifparse.cc:386:parse_blif$126"><s:alias val="$_NOT_"/><s:alias val="$not"/><s:alias val="$logic_not"/><path d="M0,0 L0,20 L20,10 Z" class="cell_$abc$110$auto$blifparse.cc:386:parse_blif$126"/><circle cx="24" cy="10" r="3" class="cell_$abc$110$auto$blifparse.cc:386:parse_blif$126"/><g s:x="-1" s:y="10" s:pid="A"/><g s:x="27" s:y="10" s:pid="Y"/></g><g s:type="nand" transform="translate(473,253)" s:width="30" s:height="25" id="cell_$abc$110$auto$blifparse.cc:386:parse_blif$127"><s:alias val="$nand"/><s:alias val="$logic_nand"/><s:alias val="$_NAND_"/><s:alias val="$_ANDNOT_"/><path d="M0,0 L0,25 L15,25 A15 12.5 0 0 0 15,0 Z" class="cell_$abc$110$auto$blifparse.cc:386:parse_blif$127"/><circle cx="34" cy="12.5" r="3" class="cell_$abc$110$auto$blifparse.cc:386:parse_blif$127"/><g s:x="0" s:y="5" s:pid="A"/><g s:x="0" s:y="20" s:pid="B"/><g s:x="36" s:y="12.5" s:pid="Y"/></g><g s:type="nand" transform="translate(473,329)" s:width="30" s:height="25" id="cell_$abc$110$auto$blifparse.cc:386:parse_blif$128"><s:alias val="$nand"/><s:alias val="$logic_nand"/><s:alias val="$_NAND_"/><s:alias val="$_ANDNOT_"/><path d="M0,0 L0,25 L15,25 A15 12.5 0 0 0 15,0 Z" class="cell_$abc$110$auto$blifparse.cc:386:parse_blif$128"/><circle cx="34" cy="12.5" r="3" class="cell_$abc$110$auto$blifparse.cc:386:parse_blif$128"/><g s:x="0" s:y="5" s:pid="A"/><g s:x="0" s:y="20" s:pid="B"/><g s:x="36" s:y="12.5" s:pid="Y"/></g><g s:type="nand" transform="translate(544,321.5)" s:width="30" s:height="25" id="cell_$abc$110$auto$blifparse.cc:386:parse_blif$129"><s:alias val="$nand"/><s:alias val="$logic_nand"/><s:alias val="$_NAND_"/><s:alias val="$_ANDNOT_"/><path d="M0,0 L0,25 L15,25 A15 12.5 0 0 0 15,0 Z" class="cell_$abc$110$auto$blifparse.cc:386:parse_blif$129"/><circle cx="34" cy="12.5" r="3" class="cell_$abc$110$auto$blifparse.cc:386:parse_blif$129"/><g s:x="0" s:y="5" s:pid="A"/><g s:x="0" s:y="20" s:pid="B"/><g s:x="36" s:y="12.5" s:pid="Y"/></g><g s:type="not" transform="translate(765,422.5)" s:width="30" s:height="20" id="cell_$abc$110$auto$blifparse.cc:386:parse_blif$130"><s:alias val="$_NOT_"/><s:alias val="$not"/><s:alias val="$logic_not"/><path d="M0,0 L0,20 L20,10 Z" class="cell_$abc$110$auto$blifparse.cc:386:parse_blif$130"/><circle cx="24" cy="10" r="3" class="cell_$abc$110$auto$blifparse.cc:386:parse_blif$130"/><g s:x="-1" s:y="10" s:pid="A"/><g s:x="27" s:y="10" s:pid="Y"/></g><g s:type="nand" transform="translate(615,299)" s:width="30" s:height="25" id="cell_$abc$110$auto$blifparse.cc:386:parse_blif$131"><s:alias val="$nand"/><s:alias val="$logic_nand"/><s:alias val="$_NAND_"/><s:alias val="$_ANDNOT_"/><path d="M0,0 L0,25 L15,25 A15 12.5 0 0 0 15,0 Z" class="cell_$abc$110$auto$blifparse.cc:386:parse_blif$131"/><circle cx="34" cy="12.5" r="3" class="cell_$abc$110$auto$blifparse.cc:386:parse_blif$131"/><g s:x="0" s:y="5" s:pid="A"/><g s:x="0" s:y="20" s:pid="B"/><g s:x="36" s:y="12.5" s:pid="Y"/></g><g s:type="nand" transform="translate(615,571)" s:width="30" s:height="25" id="cell_$abc$110$auto$blifparse.cc:386:parse_blif$132"><s:alias val="$nand"/><s:alias val="$logic_nand"/><s:alias val="$_NAND_"/><s:alias val="$_ANDNOT_"/><path d="M0,0 L0,25 L15,25 A15 12.5 0 0 0 15,0 Z" class="cell_$abc$110$auto$blifparse.cc:386:parse_blif$132"/><circle cx="34" cy="12.5" r="3" class="cell_$abc$110$auto$blifparse.cc:386:parse_blif$132"/><g s:x="0" s:y="5" s:pid="A"/><g s:x="0" s:y="20" s:pid="B"/><g s:x="36" s:y="12.5" s:pid="Y"/></g><g s:type="nand" transform="translate(686,563.5)" s:width="30" s:height="25" id="cell_$abc$110$auto$blifparse.cc:386:parse_blif$133"><s:alias val="$nand"/><s:alias val="$logic_nand"/><s:alias val="$_NAND_"/><s:alias val="$_ANDNOT_"/><path d="M0,0 L0,25 L15,25 A15 12.5 0 0 0 15,0 Z" class="cell_$abc$110$auto$blifparse.cc:386:parse_blif$133"/><circle cx="34" cy="12.5" r="3" class="cell_$abc$110$auto$blifparse.cc:386:parse_blif$133"/><g s:x="0" s:y="5" s:pid="A"/><g s:x="0" s:y="20" s:pid="B"/><g s:x="36" s:y="12.5" s:pid="Y"/></g><g s:type="not" transform="translate(765,566)" s:width="30" s:height="20" id="cell_$abc$110$auto$blifparse.cc:386:parse_blif$134"><s:alias val="$_NOT_"/><s:alias val="$not"/><s:alias val="$logic_not"/><path d="M0,0 L0,20 L20,10 Z" class="cell_$abc$110$auto$blifparse.cc:386:parse_blif$134"/><circle cx="24" cy="10" r="3" class="cell_$abc$110$auto$blifparse.cc:386:parse_blif$134"/><g s:x="-1" s:y="10" s:pid="A"/><g s:x="27" s:y="10" s:pid="Y"/></g><g s:type="nand" transform="translate(762,477.5)" s:width="30" s:height="25" id="cell_$abc$110$auto$blifparse.cc:386:parse_blif$135"><s:alias val="$nand"/><s:alias val="$logic_nand"/><s:alias val="$_NAND_"/><s:alias val="$_ANDNOT_"/><path d="M0,0 L0,25 L15,25 A15 12.5 0 0 0 15,0 Z" class="cell_$abc$110$auto$blifparse.cc:386:parse_blif$135"/><circle cx="34" cy="12.5" r="3" class="cell_$abc$110$auto$blifparse.cc:386:parse_blif$135"/><g s:x="0" s:y="5" s:pid="A"/><g s:x="0" s:y="20" s:pid="B"/><g s:x="36" s:y="12.5" s:pid="Y"/></g><g s:type="nand" transform="translate(762,628.5)" s:width="30" s:height="25" id="cell_$abc$110$auto$blifparse.cc:386:parse_blif$136"><s:alias val="$nand"/><s:alias val="$logic_nand"/><s:alias val="$_NAND_"/><s:alias val="$_ANDNOT_"/><path d="M0,0 L0,25 L15,25 A15 12.5 0 0 0 15,0 Z" class="cell_$abc$110$auto$blifparse.cc:386:parse_blif$136"/><circle cx="34" cy="12.5" r="3" class="cell_$abc$110$auto$blifparse.cc:386:parse_blif$136"/><g s:x="0" s:y="5" s:pid="A"/><g s:x="0" s:y="20" s:pid="B"/><g s:x="36" s:y="12.5" s:pid="Y"/></g><g s:type="nand" transform="translate(858,621)" s:width="30" s:height="25" id="cell_$abc$110$auto$blifparse.cc:386:parse_blif$137"><s:alias val="$nand"/><s:alias val="$logic_nand"/><s:alias val="$_NAND_"/><s:alias val="$_ANDNOT_"/><path d="M0,0 L0,25 L15,25 A15 12.5 0 0 0 15,0 Z" class="cell_$abc$110$auto$blifparse.cc:386:parse_blif$137"/><circle cx="34" cy="12.5" r="3" class="cell_$abc$110$auto$blifparse.cc:386:parse_blif$137"/><g s:x="0" s:y="5" s:pid="A"/><g s:x="0" s:y="20" s:pid="B"/><g s:x="36" s:y="12.5" s:pid="Y"/></g><g s:type="not" transform="translate(932,623.5)" s:width="30" s:height="20" id="cell_$abc$110$auto$blifparse.cc:386:parse_blif$138"><s:alias val="$_NOT_"/><s:alias val="$not"/><s:alias val="$logic_not"/><path d="M0,0 L0,20 L20,10 Z" class="cell_$abc$110$auto$blifparse.cc:386:parse_blif$138"/><circle cx="24" cy="10" r="3" class="cell_$abc$110$auto$blifparse.cc:386:parse_blif$138"/><g s:x="-1" s:y="10" s:pid="A"/><g s:x="27" s:y="10" s:pid="Y"/></g><g s:type="nand" transform="translate(858,114)" s:width="30" s:height="25" id="cell_$abc$110$auto$blifparse.cc:386:parse_blif$139"><s:alias val="$nand"/><s:alias val="$logic_nand"/><s:alias val="$_NAND_"/><s:alias val="$_ANDNOT_"/><path d="M0,0 L0,25 L15,25 A15 12.5 0 0 0 15,0 Z" class="cell_$abc$110$auto$blifparse.cc:386:parse_blif$139"/><circle cx="34" cy="12.5" r="3" class="cell_$abc$110$auto$blifparse.cc:386:parse_blif$139"/><g s:x="0" s:y="5" s:pid="A"/><g s:x="0" s:y="20" s:pid="B"/><g s:x="36" s:y="12.5" s:pid="Y"/></g><g s:type="nand" transform="translate(929,106.5)" s:width="30" s:height="25" id="cell_$abc$110$auto$blifparse.cc:386:parse_blif$140"><s:alias val="$nand"/><s:alias val="$logic_nand"/><s:alias val="$_NAND_"/><s:alias val="$_ANDNOT_"/><path d="M0,0 L0,25 L15,25 A15 12.5 0 0 0 15,0 Z" class="cell_$abc$110$auto$blifparse.cc:386:parse_blif$140"/><circle cx="34" cy="12.5" r="3" class="cell_$abc$110$auto$blifparse.cc:386:parse_blif$140"/><g s:x="0" s:y="5" s:pid="A"/><g s:x="0" s:y="20" s:pid="B"/><g s:x="36" s:y="12.5" s:pid="Y"/></g><g s:type="nand" transform="translate(858,221)" s:width="30" s:height="25" id="cell_$abc$110$auto$blifparse.cc:386:parse_blif$141"><s:alias val="$nand"/><s:alias val="$logic_nand"/><s:alias val="$_NAND_"/><s:alias val="$_ANDNOT_"/><path d="M0,0 L0,25 L15,25 A15 12.5 0 0 0 15,0 Z" class="cell_$abc$110$auto$blifparse.cc:386:parse_blif$141"/><circle cx="34" cy="12.5" r="3" class="cell_$abc$110$auto$blifparse.cc:386:parse_blif$141"/><g s:x="0" s:y="5" s:pid="A"/><g s:x="0" s:y="20" s:pid="B"/><g s:x="36" s:y="12.5" s:pid="Y"/></g><g s:type="nand" transform="translate(929,213.5)" s:width="30" s:height="25" id="cell_$abc$110$auto$blifparse.cc:386:parse_blif$142"><s:alias val="$nand"/><s:alias val="$logic_nand"/><s:alias val="$_NAND_"/><s:alias val="$_ANDNOT_"/><path d="M0,0 L0,25 L15,25 A15 12.5 0 0 0 15,0 Z" class="cell_$abc$110$auto$blifparse.cc:386:parse_blif$142"/><circle cx="34" cy="12.5" r="3" class="cell_$abc$110$auto$blifparse.cc:386:parse_blif$142"/><g s:x="0" s:y="5" s:pid="A"/><g s:x="0" s:y="20" s:pid="B"/><g s:x="36" s:y="12.5" s:pid="Y"/></g><g s:type="nand" transform="translate(858,412.5)" s:width="30" s:height="25" id="cell_$abc$110$auto$blifparse.cc:386:parse_blif$143"><s:alias val="$nand"/><s:alias val="$logic_nand"/><s:alias val="$_NAND_"/><s:alias val="$_ANDNOT_"/><path d="M0,0 L0,25 L15,25 A15 12.5 0 0 0 15,0 Z" class="cell_$abc$110$auto$blifparse.cc:386:parse_blif$143"/><circle cx="34" cy="12.5" r="3" class="cell_$abc$110$auto$blifparse.cc:386:parse_blif$143"/><g s:x="0" s:y="5" s:pid="A"/><g s:x="0" s:y="20" s:pid="B"/><g s:x="36" s:y="12.5" s:pid="Y"/></g><g s:type="nand" transform="translate(929,405)" s:width="30" s:height="25" id="cell_$abc$110$auto$blifparse.cc:386:parse_blif$144"><s:alias val="$nand"/><s:alias val="$logic_nand"/><s:alias val="$_NAND_"/><s:alias val="$_ANDNOT_"/><path d="M0,0 L0,25 L15,25 A15 12.5 0 0 0 15,0 Z" class="cell_$abc$110$auto$blifparse.cc:386:parse_blif$144"/><circle cx="34" cy="12.5" r="3" class="cell_$abc$110$auto$blifparse.cc:386:parse_blif$144"/><g s:x="0" s:y="5" s:pid="A"/><g s:x="0" s:y="20" s:pid="B"/><g s:x="36" s:y="12.5" s:pid="Y"/></g><g s:type="nand" transform="translate(858,501)" s:width="30" s:height="25" id="cell_$abc$110$auto$blifparse.cc:386:parse_blif$145"><s:alias val="$nand"/><s:alias val="$logic_nand"/><s:alias val="$_NAND_"/><s:alias val="$_ANDNOT_"/><path d="M0,0 L0,25 L15,25 A15 12.5 0 0 0 15,0 Z" class="cell_$abc$110$auto$blifparse.cc:386:parse_blif$145"/><circle cx="34" cy="12.5" r="3" class="cell_$abc$110$auto$blifparse.cc:386:parse_blif$145"/><g s:x="0" s:y="5" s:pid="A"/><g s:x="0" s:y="20" s:pid="B"/><g s:x="36" s:y="12.5" s:pid="Y"/></g><g s:type="nand" transform="translate(929,493.5)" s:width="30" s:height="25" id="cell_$abc$110$auto$blifparse.cc:386:parse_blif$146"><s:alias val="$nand"/><s:alias val="$logic_nand"/><s:alias val="$_NAND_"/><s:alias val="$_ANDNOT_"/><path d="M0,0 L0,25 L15,25 A15 12.5 0 0 0 15,0 Z" class="cell_$abc$110$auto$blifparse.cc:386:parse_blif$146"/><circle cx="34" cy="12.5" r="3" class="cell_$abc$110$auto$blifparse.cc:386:parse_blif$146"/><g s:x="0" s:y="5" s:pid="A"/><g s:x="0" s:y="20" s:pid="B"/><g s:x="36" s:y="12.5" s:pid="Y"/></g><g s:type="outputExt" transform="translate(1087,536)" s:width="30" s:height="20" id="cell_CO"><text x="15" y="-4" class="nodelabel cell_CO" s:attribute="ref">CO</text><s:alias val="$_outputExt_"/><path d="M30,0 L30,20 L15,20 L0,10 L15,0 Z" class="cell_CO"/><g s:x="0" s:y="10" s:pid="A"/></g><g s:type="outputExt" transform="translate(1087,377.5)" s:width="30" s:height="20" id="cell_O"><text x="15" y="-4" class="nodelabel cell_O" s:attribute="ref">O</text><s:alias val="$_outputExt_"/><path d="M30,0 L30,20 L15,20 L0,10 L15,0 Z" class="cell_O"/><g s:x="0" s:y="10" s:pid="A"/></g><g s:type="inputExt" transform="translate(12,131.5)" s:width="30" s:height="20" id="cell_CI"><text x="15" y="-4" class="nodelabel cell_CI" s:attribute="ref">CI</text><s:alias val="$_inputExt_"/><path d="M0,0 L0,20 L15,20 L30,10 L15,0 Z" class="cell_CI"/><g s:x="30" s:y="10" s:pid="Y"/></g><g s:type="inputExt" transform="translate(12,66.5)" s:width="30" s:height="20" id="cell_CYINIT"><text x="15" y="-4" class="nodelabel cell_CYINIT" s:attribute="ref">CYINIT</text><s:alias val="$_inputExt_"/><path d="M0,0 L0,20 L15,20 L30,10 L15,0 Z" class="cell_CYINIT"/><g s:x="30" s:y="10" s:pid="Y"/></g><g s:type="inputExt" transform="translate(12,576)" s:width="30" s:height="20" id="cell_DI"><text x="15" y="-4" class="nodelabel cell_DI" s:attribute="ref">DI</text><s:alias val="$_inputExt_"/><path d="M0,0 L0,20 L15,20 L30,10 L15,0 Z" class="cell_DI"/><g s:x="30" s:y="10" s:pid="Y"/></g><g s:type="inputExt" transform="translate(12,304)" s:width="30" s:height="20" id="cell_S"><text x="15" y="-4" class="nodelabel cell_S" s:attribute="ref">S</text><s:alias val="$_inputExt_"/><path d="M0,0 L0,20 L15,20 L30,10 L15,0 Z" class="cell_S"/><g s:x="30" s:y="10" s:pid="Y"/></g><g s:type="join" transform="translate(1007,525.5)" s:width="4" s:height="40" id="cell_$join$,2,3,4,5,"><rect width="5" height="80" class="splitjoinBody" s:generic="body"/><s:alias val="$_join_"/><g s:x="5" s:y="20" s:pid="out"/><g transform="translate(0,10)" s:x="0" s:y="10" s:pid="in0"><text x="-3" y="-4" class="inputPortLabel">0</text></g><g transform="translate(0,30)" s:x="0" s:y="10" s:pid="in0"><text x="-3" y="-4" class="inputPortLabel">1</text></g><g transform="translate(0,50)" s:x="0" s:y="10" s:pid="in0"><text x="-3" y="-4" class="inputPortLabel">2</text></g><g transform="translate(0,70)" s:x="0" s:y="10" s:pid="in0"><text x="-3" y="-4" class="inputPortLabel">3</text></g></g><g s:type="join" transform="translate(1007,367)" s:width="4" s:height="40" id="cell_$join$,6,7,8,9,"><rect width="5" height="80" class="splitjoinBody" s:generic="body"/><s:alias val="$_join_"/><g s:x="5" s:y="20" s:pid="out"/><g transform="translate(0,10)" s:x="0" s:y="10" s:pid="in0"><text x="-3" y="-4" class="inputPortLabel">0</text></g><g transform="translate(0,30)" s:x="0" s:y="10" s:pid="in0"><text x="-3" y="-4" class="inputPortLabel">1</text></g><g transform="translate(0,50)" s:x="0" s:y="10" s:pid="in0"><text x="-3" y="-4" class="inputPortLabel">2</text></g><g transform="translate(0,70)" s:x="0" s:y="10" s:pid="in0"><text x="-3" y="-4" class="inputPortLabel">3</text></g></g><g s:type="split" transform="translate(169.6,565.5)" s:width="5" s:height="40" id="cell_$split$,12,13,14,15,"><rect width="5" height="80" class="splitjoinBody" s:generic="body"/><s:alias val="$_split_"/><g s:x="0" s:y="20" s:pid="in"/><g transform="translate(4,10)" s:x="4" s:y="10" s:pid="out0"><text x="5" y="-4">2</text></g><g transform="translate(4,30)" s:x="4" s:y="10" s:pid="out0"><text x="5" y="-4">3</text></g><g transform="translate(4,50)" s:x="4" s:y="10" s:pid="out0"><text x="5" y="-4">0</text></g><g transform="translate(4,70)" s:x="4" s:y="10" s:pid="out0"><text x="5" y="-4">1</text></g></g><g s:type="split" transform="translate(169.6,293.5)" s:width="5" s:height="40" id="cell_$split$,16,17,18,19,"><rect width="5" height="80" class="splitjoinBody" s:generic="body"/><s:alias val="$_split_"/><g s:x="0" s:y="20" s:pid="in"/><g transform="translate(4,10)" s:x="4" s:y="10" s:pid="out0"><text x="5" y="-4">2</text></g><g transform="translate(4,30)" s:x="4" s:y="10" s:pid="out0"><text x="5" y="-4">3</text></g><g transform="translate(4,50)" s:x="4" s:y="10" s:pid="out0"><text x="5" y="-4">0</text></g><g transform="translate(4,70)" s:x="4" s:y="10" s:pid="out0"><text x="5" y="-4">1</text></g></g><line x1="174.6" x2="546" y1="576" y2="576" class="net_14 width_1" style="stroke-width: 1"/><line x1="174.6" x2="245" y1="304" y2="304" class="net_18 width_1" style="stroke-width: 1"/><line x1="245" x2="245" y1="304" y2="391.5" class="net_18 width_1" style="stroke-width: 1"/><circle cx="245" cy="304" r="2" style="fill:#000" class="net_18 width_1"/><line x1="245" x2="546" y1="391.5" y2="391.5" class="net_18 width_1" style="stroke-width: 1"/><line x1="174.6" x2="615" y1="304" y2="304" class="net_18 width_1" style="stroke-width: 1"/><line x1="174.6" x2="245" y1="596" y2="596" class="net_15 width_1" style="stroke-width: 1"/><line x1="245" x2="245" y1="596" y2="633.5" class="net_15 width_1" style="stroke-width: 1"/><line x1="245" x2="688" y1="633.5" y2="633.5" class="net_15 width_1" style="stroke-width: 1"/><line x1="174.6" x2="195" y1="324" y2="324" class="net_19 width_1" style="stroke-width: 1"/><line x1="195" x2="195" y1="324" y2="411.5" class="net_19 width_1" style="stroke-width: 1"/><line x1="195" x2="688" y1="411.5" y2="411.5" class="net_19 width_1" style="stroke-width: 1"/><line x1="174.6" x2="195" y1="324" y2="324" class="net_19 width_1" style="stroke-width: 1"/><line x1="195" x2="195" y1="324" y2="411.5" class="net_19 width_1" style="stroke-width: 1"/><line x1="195" x2="671" y1="411.5" y2="411.5" class="net_19 width_1" style="stroke-width: 1"/><line x1="671" x2="671" y1="411.5" y2="390.5" class="net_19 width_1" style="stroke-width: 1"/><line x1="671" x2="742" y1="390.5" y2="390.5" class="net_19 width_1" style="stroke-width: 1"/><line x1="742" x2="742" y1="390.5" y2="482.5" class="net_19 width_1" style="stroke-width: 1"/><circle cx="671" cy="411.5" r="2" style="fill:#000" class="net_19 width_1"/><line x1="742" x2="762" y1="482.5" y2="482.5" class="net_19 width_1" style="stroke-width: 1"/><line x1="42" x2="83" y1="76.5" y2="76.5" class="net_11 width_1" style="stroke-width: 1"/><line x1="42" x2="83" y1="141.5" y2="141.5" class="net_10 width_1" style="stroke-width: 1"/><line x1="174.6" x2="225" y1="616" y2="616" class="net_12 width_1" style="stroke-width: 1"/><line x1="225" x2="225" y1="616" y2="168.5" class="net_12 width_1" style="stroke-width: 1"/><line x1="225" x2="255" y1="168.5" y2="168.5" class="net_12 width_1" style="stroke-width: 1"/><line x1="174.6" x2="205" y1="344" y2="344" class="net_16 width_1" style="stroke-width: 1"/><line x1="205" x2="205" y1="344" y2="88" class="net_16 width_1" style="stroke-width: 1"/><circle cx="205" cy="88" r="2" style="fill:#000" class="net_16 width_1"/><line x1="205" x2="255" y1="88" y2="88" class="net_16 width_1" style="stroke-width: 1"/><line x1="174.6" x2="205" y1="344" y2="344" class="net_16 width_1" style="stroke-width: 1"/><line x1="205" x2="205" y1="344" y2="12" class="net_16 width_1" style="stroke-width: 1"/><line x1="205" x2="316" y1="12" y2="12" class="net_16 width_1" style="stroke-width: 1"/><line x1="316" x2="316" y1="12" y2="104" class="net_16 width_1" style="stroke-width: 1"/><line x1="316" x2="326" y1="104" y2="104" class="net_16 width_1" style="stroke-width: 1"/><line x1="174.6" x2="215" y1="364" y2="364" class="net_17 width_1" style="stroke-width: 1"/><line x1="215" x2="215" y1="364" y2="226" class="net_17 width_1" style="stroke-width: 1"/><circle cx="215" cy="226" r="2" style="fill:#000" class="net_17 width_1"/><line x1="215" x2="399" y1="226" y2="226" class="net_17 width_1" style="stroke-width: 1"/><line x1="174.6" x2="215" y1="364" y2="364" class="net_17 width_1" style="stroke-width: 1"/><line x1="215" x2="215" y1="364" y2="145" class="net_17 width_1" style="stroke-width: 1"/><line x1="215" x2="463" y1="145" y2="145" class="net_17 width_1" style="stroke-width: 1"/><line x1="463" x2="463" y1="145" y2="258" class="net_17 width_1" style="stroke-width: 1"/><line x1="463" x2="473" y1="258" y2="258" class="net_17 width_1" style="stroke-width: 1"/><line x1="174.6" x2="235" y1="636" y2="636" class="net_13 width_1" style="stroke-width: 1"/><line x1="235" x2="235" y1="636" y2="349" class="net_13 width_1" style="stroke-width: 1"/><line x1="235" x2="399" y1="349" y2="349" class="net_13 width_1" style="stroke-width: 1"/><line x1="111" x2="124" y1="76.5" y2="76.5" class="net_24 width_1" style="stroke-width: 1"/><line x1="124" x2="124" y1="76.5" y2="126.5" class="net_24 width_1" style="stroke-width: 1"/><line x1="124" x2="149" y1="126.5" y2="126.5" class="net_24 width_1" style="stroke-width: 1"/><line x1="111" x2="149" y1="141.5" y2="141.5" class="net_25 width_1" style="stroke-width: 1"/><line x1="185" x2="215" y1="134" y2="134" class="net_30 width_1" style="stroke-width: 1"/><line x1="215" x2="215" y1="134" y2="33" class="net_30 width_1" style="stroke-width: 1"/><circle cx="215" cy="134" r="2" style="fill:#000" class="net_30 width_1"/><line x1="215" x2="255" y1="33" y2="33" class="net_30 width_1" style="stroke-width: 1"/><line x1="185" x2="858" y1="134" y2="134" class="net_30 width_1" style="stroke-width: 1"/><line x1="283" x2="306" y1="33" y2="33" class="net_31 width_1" style="stroke-width: 1"/><line x1="306" x2="306" y1="33" y2="119" class="net_31 width_1" style="stroke-width: 1"/><line x1="306" x2="326" y1="119" y2="119" class="net_31 width_1" style="stroke-width: 1"/><line x1="283" x2="326" y1="168.5" y2="168.5" class="net_26 width_1" style="stroke-width: 1"/><line x1="283" x2="296" y1="88" y2="88" class="net_27 width_1" style="stroke-width: 1"/><line x1="296" x2="296" y1="88" y2="183.5" class="net_27 width_1" style="stroke-width: 1"/><circle cx="296" cy="88" r="2" style="fill:#000" class="net_27 width_1"/><line x1="296" x2="326" y1="183.5" y2="183.5" class="net_27 width_1" style="stroke-width: 1"/><line x1="283" x2="808" y1="88" y2="88" class="net_27 width_1" style="stroke-width: 1"/><line x1="808" x2="808" y1="88" y2="119" class="net_27 width_1" style="stroke-width: 1"/><line x1="808" x2="858" y1="119" y2="119" class="net_27 width_1" style="stroke-width: 1"/><line x1="362" x2="372" y1="111.5" y2="111.5" class="net_32 width_1" style="stroke-width: 1"/><line x1="372" x2="372" y1="111.5" y2="161" class="net_32 width_1" style="stroke-width: 1"/><circle cx="372" cy="111.5" r="2" style="fill:#000" class="net_32 width_1"/><line x1="372" x2="397" y1="161" y2="161" class="net_32 width_1" style="stroke-width: 1"/><line x1="362" x2="372" y1="111.5" y2="111.5" class="net_32 width_1" style="stroke-width: 1"/><line x1="372" x2="372" y1="111.5" y2="77" class="net_32 width_1" style="stroke-width: 1"/><line x1="372" x2="904" y1="77" y2="77" class="net_32 width_1" style="stroke-width: 1"/><line x1="904" x2="904" y1="77" y2="111.5" class="net_32 width_1" style="stroke-width: 1"/><line x1="904" x2="929" y1="111.5" y2="111.5" class="net_32 width_1" style="stroke-width: 1"/><line x1="362" x2="397" y1="176" y2="176" class="net_33 width_1" style="stroke-width: 1"/><line x1="433" x2="453" y1="168.5" y2="168.5" class="net_34 width_1" style="stroke-width: 1"/><line x1="453" x2="453" y1="168.5" y2="288" class="net_34 width_1" style="stroke-width: 1"/><line x1="453" x2="764" y1="288" y2="288" class="net_34 width_1" style="stroke-width: 1"/><line x1="433" x2="453" y1="168.5" y2="168.5" class="net_34 width_1" style="stroke-width: 1"/><line x1="453" x2="453" y1="168.5" y2="273" class="net_34 width_1" style="stroke-width: 1"/><circle cx="453" cy="273" r="2" style="fill:#000" class="net_34 width_1"/><line x1="453" x2="473" y1="273" y2="273" class="net_34 width_1" style="stroke-width: 1"/><line x1="427" x2="443" y1="226" y2="226" class="net_28 width_1" style="stroke-width: 1"/><line x1="443" x2="443" y1="226" y2="334" class="net_28 width_1" style="stroke-width: 1"/><circle cx="443" cy="226" r="2" style="fill:#000" class="net_28 width_1"/><line x1="443" x2="473" y1="334" y2="334" class="net_28 width_1" style="stroke-width: 1"/><line x1="427" x2="858" y1="226" y2="226" class="net_28 width_1" style="stroke-width: 1"/><line x1="427" x2="473" y1="349" y2="349" class="net_29 width_1" style="stroke-width: 1"/><line x1="509" x2="519" y1="265.5" y2="265.5" class="net_35 width_1" style="stroke-width: 1"/><line x1="519" x2="519" y1="265.5" y2="326.5" class="net_35 width_1" style="stroke-width: 1"/><circle cx="519" cy="265.5" r="2" style="fill:#000" class="net_35 width_1"/><line x1="519" x2="544" y1="326.5" y2="326.5" class="net_35 width_1" style="stroke-width: 1"/><line x1="509" x2="519" y1="265.5" y2="265.5" class="net_35 width_1" style="stroke-width: 1"/><line x1="519" x2="519" y1="265.5" y2="210" class="net_35 width_1" style="stroke-width: 1"/><line x1="519" x2="904" y1="210" y2="210" class="net_35 width_1" style="stroke-width: 1"/><line x1="904" x2="904" y1="210" y2="218.5" class="net_35 width_1" style="stroke-width: 1"/><line x1="904" x2="929" y1="218.5" y2="218.5" class="net_35 width_1" style="stroke-width: 1"/><line x1="509" x2="544" y1="341.5" y2="341.5" class="net_36 width_1" style="stroke-width: 1"/><line x1="580" x2="752" y1="334" y2="334" class="net_37 width_1" style="stroke-width: 1"/><line x1="752" x2="752" y1="334" y2="432.5" class="net_37 width_1" style="stroke-width: 1"/><line x1="752" x2="764" y1="432.5" y2="432.5" class="net_37 width_1" style="stroke-width: 1"/><line x1="580" x2="600" y1="334" y2="334" class="net_37 width_1" style="stroke-width: 1"/><line x1="600" x2="600" y1="334" y2="319" class="net_37 width_1" style="stroke-width: 1"/><circle cx="600" cy="334" r="2" style="fill:#000" class="net_37 width_1"/><line x1="600" x2="615" y1="319" y2="319" class="net_37 width_1" style="stroke-width: 1"/><line x1="574" x2="615" y1="576" y2="576" class="net_20 width_1" style="stroke-width: 1"/><line x1="574" x2="590" y1="391.5" y2="391.5" class="net_21 width_1" style="stroke-width: 1"/><line x1="590" x2="590" y1="391.5" y2="591" class="net_21 width_1" style="stroke-width: 1"/><circle cx="590" cy="391.5" r="2" style="fill:#000" class="net_21 width_1"/><line x1="590" x2="615" y1="591" y2="591" class="net_21 width_1" style="stroke-width: 1"/><line x1="574" x2="590" y1="391.5" y2="391.5" class="net_21 width_1" style="stroke-width: 1"/><line x1="590" x2="590" y1="391.5" y2="267" class="net_21 width_1" style="stroke-width: 1"/><line x1="590" x2="848" y1="267" y2="267" class="net_21 width_1" style="stroke-width: 1"/><line x1="848" x2="848" y1="267" y2="417.5" class="net_21 width_1" style="stroke-width: 1"/><line x1="848" x2="858" y1="417.5" y2="417.5" class="net_21 width_1" style="stroke-width: 1"/><line x1="651" x2="661" y1="311.5" y2="311.5" class="net_38 width_1" style="stroke-width: 1"/><line x1="661" x2="661" y1="311.5" y2="568.5" class="net_38 width_1" style="stroke-width: 1"/><circle cx="661" cy="311.5" r="2" style="fill:#000" class="net_38 width_1"/><line x1="661" x2="686" y1="568.5" y2="568.5" class="net_38 width_1" style="stroke-width: 1"/><line x1="651" x2="661" y1="311.5" y2="311.5" class="net_38 width_1" style="stroke-width: 1"/><line x1="661" x2="661" y1="311.5" y2="256" class="net_38 width_1" style="stroke-width: 1"/><line x1="661" x2="904" y1="256" y2="256" class="net_38 width_1" style="stroke-width: 1"/><line x1="904" x2="904" y1="256" y2="410" class="net_38 width_1" style="stroke-width: 1"/><line x1="904" x2="929" y1="410" y2="410" class="net_38 width_1" style="stroke-width: 1"/><line x1="651" x2="686" y1="583.5" y2="583.5" class="net_39 width_1" style="stroke-width: 1"/><line x1="722" x2="764" y1="576" y2="576" class="net_40 width_1" style="stroke-width: 1"/><line x1="722" x2="742" y1="576" y2="576" class="net_40 width_1" style="stroke-width: 1"/><line x1="742" x2="742" y1="576" y2="497.5" class="net_40 width_1" style="stroke-width: 1"/><circle cx="742" cy="576" r="2" style="fill:#000" class="net_40 width_1"/><line x1="742" x2="762" y1="497.5" y2="497.5" class="net_40 width_1" style="stroke-width: 1"/><line x1="716" x2="762" y1="633.5" y2="633.5" class="net_22 width_1" style="stroke-width: 1"/><line x1="716" x2="732" y1="411.5" y2="411.5" class="net_23 width_1" style="stroke-width: 1"/><line x1="732" x2="732" y1="411.5" y2="648.5" class="net_23 width_1" style="stroke-width: 1"/><circle cx="732" cy="411.5" r="2" style="fill:#000" class="net_23 width_1"/><line x1="732" x2="762" y1="648.5" y2="648.5" class="net_23 width_1" style="stroke-width: 1"/><line x1="716" x2="828" y1="411.5" y2="411.5" class="net_23 width_1" style="stroke-width: 1"/><line x1="828" x2="828" y1="411.5" y2="506" class="net_23 width_1" style="stroke-width: 1"/><line x1="828" x2="858" y1="506" y2="506" class="net_23 width_1" style="stroke-width: 1"/><line x1="798" x2="808" y1="490" y2="490" class="net_41 width_1" style="stroke-width: 1"/><line x1="808" x2="808" y1="490" y2="626" class="net_41 width_1" style="stroke-width: 1"/><circle cx="808" cy="490" r="2" style="fill:#000" class="net_41 width_1"/><line x1="808" x2="858" y1="626" y2="626" class="net_41 width_1" style="stroke-width: 1"/><line x1="798" x2="904" y1="490" y2="490" class="net_41 width_1" style="stroke-width: 1"/><line x1="904" x2="904" y1="490" y2="498.5" class="net_41 width_1" style="stroke-width: 1"/><line x1="904" x2="929" y1="498.5" y2="498.5" class="net_41 width_1" style="stroke-width: 1"/><line x1="798" x2="858" y1="641" y2="641" class="net_42 width_1" style="stroke-width: 1"/><line x1="894" x2="931" y1="633.5" y2="633.5" class="net_43 width_1" style="stroke-width: 1"/><line x1="894" x2="929" y1="126.5" y2="126.5" class="net_44 width_1" style="stroke-width: 1"/><line x1="792" x2="838" y1="288" y2="288" class="net_2 width_1" style="stroke-width: 1"/><line x1="838" x2="838" y1="288" y2="241" class="net_2 width_1" style="stroke-width: 1"/><circle cx="838" cy="288" r="2" style="fill:#000" class="net_2 width_1"/><line x1="838" x2="858" y1="241" y2="241" class="net_2 width_1" style="stroke-width: 1"/><line x1="792" x2="838" y1="288" y2="288" class="net_2 width_1" style="stroke-width: 1"/><line x1="838" x2="838" y1="288" y2="536" class="net_2 width_1" style="stroke-width: 1"/><line x1="838" x2="1007" y1="536" y2="536" class="net_2 width_1" style="stroke-width: 1"/><line x1="894" x2="929" y1="233.5" y2="233.5" class="net_45 width_1" style="stroke-width: 1"/><line x1="792" x2="858" y1="432.5" y2="432.5" class="net_3 width_1" style="stroke-width: 1"/><line x1="792" x2="818" y1="432.5" y2="432.5" class="net_3 width_1" style="stroke-width: 1"/><line x1="818" x2="818" y1="432.5" y2="556" class="net_3 width_1" style="stroke-width: 1"/><circle cx="818" cy="432.5" r="2" style="fill:#000" class="net_3 width_1"/><line x1="818" x2="1007" y1="556" y2="556" class="net_3 width_1" style="stroke-width: 1"/><line x1="894" x2="929" y1="425" y2="425" class="net_46 width_1" style="stroke-width: 1"/><line x1="792" x2="848" y1="576" y2="576" class="net_4 width_1" style="stroke-width: 1"/><line x1="848" x2="848" y1="576" y2="521" class="net_4 width_1" style="stroke-width: 1"/><circle cx="848" cy="576" r="2" style="fill:#000" class="net_4 width_1"/><line x1="848" x2="858" y1="521" y2="521" class="net_4 width_1" style="stroke-width: 1"/><line x1="792" x2="1007" y1="576" y2="576" class="net_4 width_1" style="stroke-width: 1"/><line x1="894" x2="929" y1="513.5" y2="513.5" class="net_47 width_1" style="stroke-width: 1"/><line x1="1013" x2="1087" y1="546" y2="546" class="net_2,3,4,5 width_4" style="stroke-width: 2"/><line x1="1013" x2="1087" y1="387.5" y2="387.5" class="net_6,7,8,9 width_4" style="stroke-width: 2"/><line x1="959" x2="1007.5" y1="633.5" y2="633.5" class="net_5 width_1" style="stroke-width: 1"/><line x1="1007.5" x2="1007.5" y1="633.5" y2="596.5" class="net_5 width_1" style="stroke-width: 1"/><line x1="965" x2="985" y1="119" y2="119" class="net_6 width_1" style="stroke-width: 1"/><line x1="985" x2="985" y1="119" y2="377.5" class="net_6 width_1" style="stroke-width: 1"/><line x1="985" x2="1007" y1="377.5" y2="377.5" class="net_6 width_1" style="stroke-width: 1"/><line x1="965" x2="975" y1="226" y2="226" class="net_7 width_1" style="stroke-width: 1"/><line x1="975" x2="975" y1="226" y2="397.5" class="net_7 width_1" style="stroke-width: 1"/><line x1="975" x2="1007" y1="397.5" y2="397.5" class="net_7 width_1" style="stroke-width: 1"/><line x1="965" x2="1007" y1="417.5" y2="417.5" class="net_8 width_1" style="stroke-width: 1"/><line x1="965" x2="1007.5" y1="506" y2="506" class="net_9 width_1" style="stroke-width: 1"/><line x1="1007.5" x2="1007.5" y1="506" y2="438" class="net_9 width_1" style="stroke-width: 1"/><line x1="42" x2="169.6" y1="586" y2="586" class="net_12,13,14,15 width_4" style="stroke-width: 2"/><line x1="42" x2="169.6" y1="314" y2="314" class="net_16,17,18,19 width_4" style="stroke-width: 2"/><rect x="1049" y="541" width="16" height="9" class="net_2,3,4,5 width_4 busLabel_4" style="fill: white; stroke: none"/><text x="1048" y="549" class="net_2,3,4,5 width_4 busLabel_4">/4/</text><rect x="1049" y="382.5" width="16" height="9" class="net_6,7,8,9 width_4 busLabel_4" style="fill: white; stroke: none"/><text x="1048" y="390.5" class="net_6,7,8,9 width_4 busLabel_4">/4/</text><rect x="97.5" y="581" width="16" height="9" class="net_12,13,14,15 width_4 busLabel_4" style="fill: white; stroke: none"/><text x="96.5" y="589" class="net_12,13,14,15 width_4 busLabel_4">/4/</text><rect x="97.5" y="309" width="16" height="9" class="net_16,17,18,19 width_4 busLabel_4" style="fill: white; stroke: none"/><text x="96.5" y="317" class="net_16,17,18,19 width_4 busLabel_4">/4/</text></svg>